<svg xmlns="http://www.w3.org/2000/svg" xmlns:xlink="http://www.w3.org/1999/xlink" width="400" zoomAndPan="magnify" viewBox="0 0 300 299.999988" height="400" preserveAspectRatio="xMidYMid meet" version="1.0"><defs><clipPath id="3b82509c5b"><path d="M 7.6875 0 L 292.6875 0 L 292.6875 300 L 7.6875 300 Z M 7.6875 0 " clip-rule="nonzero"/></clipPath></defs><g clip-path="url(#3b82509c5b)"><path fill="#000000" d="M 141.167969 79.71875 L 141.167969 88.550781 L 283.625 88.550781 L 283.625 97.339844 L 292.527344 97.339844 L 292.527344 114.960938 L 283.625 114.960938 L 283.625 141.371094 L 274.722656 141.371094 L 274.722656 158.929688 L 265.820312 158.929688 L 265.820312 176.570312 L 256.917969 176.570312 L 256.917969 185.339844 L 239.113281 185.339844 L 239.113281 194.191406 L 230.210938 194.191406 L 230.210938 202.960938 L 221.308594 202.960938 L 221.308594 211.75 L 203.503906 211.75 L 203.503906 220.582031 L 185.699219 220.582031 L 185.699219 229.371094 L 221.308594 229.371094 L 221.308594 220.582031 L 230.210938 220.582031 L 230.210938 229.371094 L 239.113281 229.371094 L 239.113281 246.992188 L 230.210938 246.992188 L 230.210938 264.574219 L 221.308594 264.574219 L 221.308594 282.195312 L 212.40625 282.195312 L 212.40625 290.984375 L 203.503906 290.984375 L 203.503906 282.195312 L 194.601562 282.195312 L 194.601562 264.574219 L 167.894531 264.574219 L 167.894531 255.78125 L 158.992188 255.78125 L 158.992188 246.992188 L 150.089844 246.992188 L 150.089844 238.164062 L 141.167969 238.164062 L 141.167969 229.371094 L 132.285156 229.371094 L 132.285156 238.164062 L 123.382812 238.164062 L 123.382812 255.78125 L 132.285156 255.78125 L 132.285156 273.402344 L 141.167969 273.402344 L 141.167969 282.195312 L 150.089844 282.195312 L 150.089844 290.984375 L 141.167969 290.984375 L 141.167969 299.8125 L 87.753906 299.8125 L 87.753906 290.984375 L 78.851562 290.984375 L 78.851562 282.195312 L 87.753906 282.195312 L 87.753906 273.402344 L 96.65625 273.402344 L 96.65625 264.574219 L 87.753906 264.574219 L 87.753906 220.582031 L 69.949219 220.582031 L 69.949219 211.75 L 61.046875 211.75 L 61.046875 202.960938 L 52.144531 202.960938 L 52.144531 194.191406 L 43.246094 194.191406 L 43.246094 176.570312 L 34.34375 176.570312 L 34.34375 141.371094 L 43.246094 141.371094 L 43.246094 123.75 L 52.144531 123.75 L 43.246094 123.75 L 43.246094 114.960938 L 34.34375 114.960938 L 34.34375 97.339844 L 16.539062 97.339844 L 16.539062 88.550781 L 7.636719 88.550781 L 7.636719 79.71875 L 16.539062 79.71875 L 16.539062 70.929688 L 25.441406 70.929688 L 25.441406 44.519531 L 34.34375 44.519531 L 34.34375 18.105469 L 43.246094 18.105469 L 43.246094 9.335938 L 61.046875 9.335938 L 61.046875 0.488281 C 66.996094 0.488281 72.925781 0.488281 78.851562 0.488281 L 87.753906 0.488281 L 87.753906 9.335938 L 105.558594 9.335938 L 105.558594 18.105469 L 114.460938 18.105469 L 114.460938 26.898438 L 123.382812 26.898438 L 123.382812 35.746094 L 132.285156 35.746094 L 132.285156 44.519531 L 141.167969 44.519531 L 141.167969 79.71875 " fill-opacity="1" fill-rule="evenodd"/></g><path fill="#ffffff" d="M 87.753906 26.898438 L 87.753906 18.105469 L 105.558594 18.105469 L 105.558594 26.898438 L 114.460938 26.898438 L 114.460938 35.746094 L 123.382812 35.746094 L 123.382812 44.519531 L 132.285156 44.519531 L 132.285156 88.550781 L 141.167969 88.550781 L 141.167969 97.339844 C 188.652344 97.339844 236.140625 97.339844 283.625 97.339844 L 283.625 114.960938 L 274.722656 114.960938 L 274.722656 141.371094 L 265.820312 141.371094 L 265.820312 158.929688 L 256.917969 158.929688 L 256.917969 176.570312 L 230.210938 176.570312 L 230.210938 194.191406 L 221.308594 194.191406 L 221.308594 202.960938 C 215.359375 202.960938 209.433594 202.960938 203.503906 202.960938 L 203.503906 211.75 L 185.699219 211.75 L 185.699219 220.582031 C 153.046875 220.582031 120.410156 220.582031 87.753906 220.582031 L 87.753906 211.75 L 69.949219 211.75 L 69.949219 202.960938 L 61.046875 202.960938 L 61.046875 194.191406 L 52.144531 194.191406 L 52.144531 176.570312 L 43.246094 176.570312 L 43.246094 141.371094 L 52.144531 141.371094 L 52.144531 123.75 L 69.949219 123.75 L 69.949219 106.128906 L 52.144531 106.128906 L 52.144531 97.339844 L 34.34375 97.339844 C 34.34375 80.179688 34.34375 79.558594 34.34375 44.519531 C 40.269531 44.519531 46.21875 44.519531 52.144531 44.519531 L 52.144531 35.746094 L 69.949219 35.746094 L 69.949219 26.898438 L 87.753906 26.898438 " fill-opacity="1" fill-rule="evenodd"/><path fill="#d1a802" d="M 96.65625 290.984375 L 87.753906 290.984375 L 87.753906 282.195312 C 93.703125 282.195312 99.632812 282.195312 105.558594 282.195312 L 105.558594 264.574219 L 96.65625 264.574219 L 96.65625 229.371094 L 105.558594 229.371094 L 105.558594 220.582031 L 123.382812 220.582031 L 123.382812 238.164062 L 114.460938 238.164062 L 114.460938 255.78125 L 123.382812 255.78125 L 123.382812 273.402344 L 132.285156 273.402344 L 132.285156 282.195312 L 141.167969 282.195312 L 141.167969 290.984375 L 96.65625 290.984375 " fill-opacity="1" fill-rule="evenodd"/><path fill="#ffcc00" d="M 212.40625 282.195312 L 203.503906 282.195312 L 203.503906 255.78125 L 167.894531 255.78125 L 167.894531 246.992188 L 158.992188 246.992188 L 158.992188 238.164062 L 150.089844 238.164062 L 150.089844 220.582031 C 156.019531 220.582031 161.949219 220.582031 167.894531 220.582031 L 167.894531 229.371094 L 176.796875 229.371094 L 176.796875 238.164062 L 221.308594 238.164062 L 221.308594 229.371094 L 230.210938 229.371094 L 230.210938 246.992188 L 221.308594 246.992188 L 221.308594 264.574219 L 212.40625 264.574219 L 212.40625 282.195312 " fill-opacity="1" fill-rule="evenodd"/><path fill="#f2f2f2" d="M 150.089844 202.960938 L 141.167969 202.960938 L 141.167969 194.191406 L 132.285156 194.191406 L 132.285156 185.339844 L 123.382812 185.339844 L 123.382812 176.570312 L 105.558594 176.570312 L 105.558594 158.929688 L 96.65625 158.929688 L 96.65625 132.539062 L 105.558594 132.539062 L 105.558594 123.75 L 114.460938 123.75 L 114.460938 114.960938 C 126.339844 114.960938 138.214844 114.960938 150.089844 114.960938 L 150.089844 123.75 L 158.992188 123.75 L 158.992188 132.539062 C 167.894531 132.539062 176.796875 132.539062 185.699219 132.539062 L 185.699219 123.75 L 221.308594 123.75 L 221.308594 132.539062 L 230.210938 132.539062 L 230.210938 167.78125 L 221.308594 167.78125 L 221.308594 185.339844 L 212.40625 185.339844 L 212.40625 194.191406 C 203.503906 194.191406 194.601562 194.191406 185.699219 194.191406 L 185.699219 202.960938 L 150.089844 202.960938 " fill-opacity="1" fill-rule="evenodd"/><path fill="#f20d04" d="M 78.851562 9.335938 L 87.753906 9.335938 L 87.753906 26.898438 C 81.828125 26.898438 75.898438 26.898438 69.949219 26.898438 L 69.949219 35.746094 L 52.144531 35.746094 L 52.144531 44.519531 L 43.246094 44.519531 L 43.246094 18.105469 C 49.171875 18.105469 55.121094 18.105469 61.046875 18.105469 L 61.046875 9.335938 C 66.996094 9.335938 72.925781 9.335938 78.851562 9.335938 Z M 69.949219 123.75 L 61.046875 123.75 L 61.046875 114.960938 L 43.246094 114.960938 L 43.246094 97.339844 L 52.144531 97.339844 L 52.144531 106.128906 L 69.949219 106.128906 L 69.949219 123.75 " fill-opacity="1" fill-rule="evenodd"/><path fill="#ffcc00" d="M 61.046875 79.71875 L 61.046875 70.929688 C 81.105469 70.929688 85.503906 70.929688 105.558594 70.929688 L 105.558594 88.550781 L 96.65625 88.550781 L 96.65625 97.339844 L 69.949219 97.339844 L 69.949219 88.550781 L 61.046875 88.550781 Z M 52.144531 88.550781 L 16.539062 88.550781 L 16.539062 79.71875 L 25.441406 79.71875 L 25.441406 70.929688 L 43.246094 70.929688 L 43.246094 79.71875 L 52.144531 79.71875 L 52.144531 88.550781 " fill-opacity="1" fill-rule="evenodd"/><path fill="#000000" d="M 87.753906 88.550781 L 78.851562 88.550781 L 78.851562 79.71875 L 69.949219 79.71875 L 69.949219 70.929688 L 96.65625 70.929688 L 96.65625 79.71875 L 87.753906 79.71875 L 87.753906 88.550781 " fill-opacity="1" fill-rule="evenodd"/><path fill="#f2f2f2" d="M 61.046875 70.929688 L 52.144531 70.929688 L 52.144531 62.136719 L 61.046875 62.136719 L 61.046875 53.308594 L 69.949219 53.308594 L 69.949219 44.519531 C 78.851562 44.519531 87.753906 44.519531 96.65625 44.519531 L 96.65625 53.308594 L 105.558594 53.308594 L 105.558594 62.136719 L 114.460938 62.136719 L 114.460938 70.929688 L 61.046875 70.929688 " fill-opacity="1" fill-rule="evenodd"/></svg>