<svg xmlns="http://www.w3.org/2000/svg" xmlns:xlink="http://www.w3.org/1999/xlink" width="400" zoomAndPan="magnify" viewBox="0 0 300 299.999988" height="400" preserveAspectRatio="xMidYMid meet" version="1.0"><defs><clipPath id="2a5c483bbe"><path d="M 0 85.636719 L 300 85.636719 L 300 300 L 0 300 Z M 0 85.636719 " clip-rule="nonzero"/></clipPath><clipPath id="58bde9a62d"><path d="M 114 85.636719 L 129 85.636719 L 129 100 L 114 100 Z M 114 85.636719 " clip-rule="nonzero"/></clipPath><clipPath id="956f09abf7"><path d="M 128 85.636719 L 158 85.636719 L 158 100 L 128 100 Z M 128 85.636719 " clip-rule="nonzero"/></clipPath></defs><g clip-path="url(#2a5c483bbe)"><path fill="#00fb4a" d="M 285.714844 200.035156 L 285.714844 157.148438 L 271.429688 157.148438 L 271.429688 142.855469 L 257.144531 142.855469 L 257.144531 128.558594 L 242.855469 128.558594 L 242.855469 114.261719 L 228.570312 114.261719 L 228.570312 99.96875 L 185.714844 99.96875 L 185.714844 85.671875 L 114.285156 85.671875 L 114.285156 99.96875 L 71.429688 99.96875 L 71.429688 114.261719 L 57.144531 114.261719 L 57.144531 128.558594 L 42.855469 128.558594 L 42.855469 142.855469 L 28.570312 142.855469 L 28.570312 157.148438 L 14.285156 157.148438 L 14.285156 200.035156 L 0 200.035156 L 0 271.507812 L 14.285156 271.507812 L 14.285156 285.804688 L 28.570312 285.804688 L 28.570312 300.097656 L 271.429688 300.097656 L 271.429688 285.804688 L 285.714844 285.804688 L 285.714844 271.507812 L 300 271.507812 L 300 200.035156 Z M 285.714844 200.035156 " fill-opacity="1" fill-rule="nonzero"/></g><path fill="#2e1b5b" d="M 0 200.035156 L 14.285156 200.035156 L 14.285156 271.507812 L 0 271.507812 Z M 0 200.035156 " fill-opacity="1" fill-rule="nonzero"/><path fill="#2e1b5b" d="M 14.285156 271.507812 L 28.570312 271.507812 L 28.570312 285.804688 L 14.285156 285.804688 Z M 14.285156 271.507812 " fill-opacity="1" fill-rule="nonzero"/><path fill="#2e1b5b" d="M 14.285156 157.148438 L 28.570312 157.148438 L 28.570312 200.035156 L 14.285156 200.035156 Z M 14.285156 157.148438 " fill-opacity="1" fill-rule="nonzero"/><path fill="#2e1b5b" d="M 28.570312 142.855469 L 42.855469 142.855469 L 42.855469 157.148438 L 28.570312 157.148438 Z M 28.570312 142.855469 " fill-opacity="1" fill-rule="nonzero"/><path fill="#2e1b5b" d="M 42.855469 128.558594 L 57.144531 128.558594 L 57.144531 142.855469 L 42.855469 142.855469 Z M 42.855469 128.558594 " fill-opacity="1" fill-rule="nonzero"/><path fill="#2e1b5b" d="M 57.144531 114.261719 L 71.429688 114.261719 L 71.429688 128.558594 L 57.144531 128.558594 Z M 57.144531 114.261719 " fill-opacity="1" fill-rule="nonzero"/><path fill="#2e1b5b" d="M 71.429688 99.96875 L 114.285156 99.96875 L 114.285156 114.261719 L 71.429688 114.261719 Z M 71.429688 99.96875 " fill-opacity="1" fill-rule="nonzero"/><g clip-path="url(#58bde9a62d)"><path fill="#2e1b5b" d="M 114.285156 85.671875 L 128.570312 85.671875 L 128.570312 99.96875 L 114.285156 99.96875 Z M 114.285156 85.671875 " fill-opacity="1" fill-rule="nonzero"/></g><path fill="#2e1b5b" d="M 271.429688 271.507812 L 285.714844 271.507812 L 285.714844 285.804688 L 271.429688 285.804688 Z M 271.429688 271.507812 " fill-opacity="1" fill-rule="nonzero"/><path fill="#2e1b5b" d="M 285.714844 257.214844 L 300 257.214844 L 300 271.507812 L 285.714844 271.507812 Z M 285.714844 257.214844 " fill-opacity="1" fill-rule="nonzero"/><g clip-path="url(#956f09abf7)"><path fill="#2e1b5b" d="M 128.570312 85.671875 L 157.144531 85.671875 L 157.144531 99.96875 L 128.570312 99.96875 Z M 128.570312 85.671875 " fill-opacity="0.5" fill-rule="nonzero"/></g><path fill="#2da1a9" d="M 100 228.625 L 114.285156 228.625 L 114.285156 242.917969 L 100 242.917969 Z M 100 228.625 " fill-opacity="1" fill-rule="nonzero"/><path fill="#2da1a9" d="M 200 228.625 L 214.285156 228.625 L 214.285156 242.917969 L 200 242.917969 Z M 200 228.625 " fill-opacity="1" fill-rule="nonzero"/><path fill="#2da1a9" d="M 271.429688 242.917969 L 285.714844 242.917969 L 285.714844 257.214844 L 271.429688 257.214844 Z M 271.429688 242.917969 " fill-opacity="1" fill-rule="nonzero"/><path fill="#2da1a9" d="M 28.570312 157.148438 L 42.855469 157.148438 L 42.855469 200.035156 L 28.570312 200.035156 Z M 28.570312 157.148438 " fill-opacity="1" fill-rule="nonzero"/><path fill="#2da1a9" d="M 42.855469 142.855469 L 57.144531 142.855469 L 57.144531 157.148438 L 42.855469 157.148438 Z M 42.855469 142.855469 " fill-opacity="1" fill-rule="nonzero"/><path fill="#2da1a9" d="M 257.144531 257.214844 L 257.144531 271.507812 L 228.570312 271.507812 L 228.570312 257.214844 L 185.714844 257.214844 L 185.714844 242.917969 L 114.285156 242.917969 L 114.285156 257.214844 L 71.429688 257.214844 L 71.429688 271.507812 L 42.855469 271.507812 L 42.855469 257.214844 L 28.570312 257.214844 L 28.570312 200.035156 L 14.285156 200.035156 L 14.285156 271.507812 L 28.570312 271.507812 L 28.570312 285.804688 L 271.429688 285.804688 L 271.429688 257.214844 Z M 257.144531 257.214844 " fill-opacity="1" fill-rule="nonzero"/><path fill="#2da1a9" d="M 57.144531 242.917969 L 71.429688 242.917969 L 71.429688 257.214844 L 57.144531 257.214844 Z M 57.144531 242.917969 " fill-opacity="1" fill-rule="nonzero"/><path fill="#2da1a9" d="M 42.855469 200.035156 L 57.144531 200.035156 L 57.144531 214.328125 L 42.855469 214.328125 Z M 42.855469 200.035156 " fill-opacity="1" fill-rule="nonzero"/><path fill="#2da1a9" d="M 42.855469 257.214844 L 71.429688 257.214844 L 71.429688 271.507812 L 42.855469 271.507812 Z M 42.855469 257.214844 " fill-opacity="0.5" fill-rule="nonzero"/><path fill="#2da1a9" d="M 71.429688 242.917969 L 85.714844 242.917969 L 85.714844 257.214844 L 71.429688 257.214844 Z M 71.429688 242.917969 " fill-opacity="0.5" fill-rule="nonzero"/><path fill="#2da1a9" d="M 100 242.917969 L 114.285156 242.917969 L 114.285156 257.214844 L 100 257.214844 Z M 100 242.917969 " fill-opacity="0.5" fill-rule="nonzero"/><path fill="#2da1a9" d="M 42.855469 228.625 L 57.144531 228.625 L 57.144531 242.917969 L 42.855469 242.917969 Z M 42.855469 228.625 " fill-opacity="0.5" fill-rule="nonzero"/><path fill="#2da1a9" d="M 28.570312 242.917969 L 42.855469 242.917969 L 42.855469 257.214844 L 28.570312 257.214844 Z M 28.570312 242.917969 " fill-opacity="0.5" fill-rule="nonzero"/><path fill="#2da1a9" d="M 114.285156 228.625 L 128.570312 228.625 L 128.570312 242.917969 L 114.285156 242.917969 Z M 114.285156 228.625 " fill-opacity="0.5" fill-rule="nonzero"/><path fill="#2da1a9" d="M 71.429688 214.328125 L 85.714844 214.328125 L 85.714844 228.625 L 71.429688 228.625 Z M 71.429688 214.328125 " fill-opacity="0.5" fill-rule="nonzero"/><path fill="#2da1a9" d="M 142.855469 228.625 L 157.144531 228.625 L 157.144531 242.917969 L 142.855469 242.917969 Z M 142.855469 228.625 " fill-opacity="0.5" fill-rule="nonzero"/><path fill="#2da1a9" d="M 157.144531 214.328125 L 171.429688 214.328125 L 171.429688 228.625 L 157.144531 228.625 Z M 157.144531 214.328125 " fill-opacity="0.5" fill-rule="nonzero"/><path fill="#2da1a9" d="M 214.285156 242.917969 L 228.570312 242.917969 L 228.570312 257.214844 L 214.285156 257.214844 Z M 214.285156 242.917969 " fill-opacity="0.5" fill-rule="nonzero"/><path fill="#2da1a9" d="M 185.714844 242.917969 L 200 242.917969 L 200 257.214844 L 185.714844 257.214844 Z M 185.714844 242.917969 " fill-opacity="0.5" fill-rule="nonzero"/><path fill="#2da1a9" d="M 285.714844 214.328125 L 300 214.328125 L 300 228.625 L 285.714844 228.625 Z M 285.714844 214.328125 " fill-opacity="0.5" fill-rule="nonzero"/><path fill="#2da1a9" d="M 257.144531 242.917969 L 271.429688 242.917969 L 271.429688 257.214844 L 257.144531 257.214844 Z M 257.144531 242.917969 " fill-opacity="0.5" fill-rule="nonzero"/><path fill="#2da1a9" d="M 271.429688 200.035156 L 285.714844 200.035156 L 285.714844 214.328125 L 271.429688 214.328125 Z M 271.429688 200.035156 " fill-opacity="1" fill-rule="nonzero"/><path fill="#2da1a9" d="M 242.855469 228.625 L 257.144531 228.625 L 257.144531 242.917969 L 242.855469 242.917969 Z M 242.855469 228.625 " fill-opacity="0.5" fill-rule="nonzero"/><path fill="#2da1a9" d="M 228.570312 257.214844 L 257.144531 257.214844 L 257.144531 271.507812 L 228.570312 271.507812 Z M 228.570312 257.214844 " fill-opacity="0.5" fill-rule="nonzero"/><path fill="#2e1b5b" d="M 100 257.214844 L 114.285156 257.214844 L 114.285156 271.507812 L 100 271.507812 Z M 100 257.214844 " fill-opacity="1" fill-rule="nonzero"/><path fill="#2e1b5b" d="M 185.714844 285.804688 L 185.714844 271.507812 L 171.429688 271.507812 L 171.429688 285.804688 L 85.714844 285.804688 L 85.714844 271.507812 L 71.429688 271.507812 L 71.429688 285.804688 L 28.570312 285.804688 L 28.570312 300.097656 L 271.429688 300.097656 L 271.429688 285.804688 Z M 185.714844 285.804688 " fill-opacity="1" fill-rule="nonzero"/><path fill="#2e1b5b" d="M 200 271.507812 L 214.285156 271.507812 L 214.285156 285.804688 L 200 285.804688 Z M 200 271.507812 " fill-opacity="0.5" fill-rule="nonzero"/><path fill="#2e1b5b" d="M 242.855469 271.507812 L 257.144531 271.507812 L 257.144531 285.804688 L 242.855469 285.804688 Z M 242.855469 271.507812 " fill-opacity="0.5" fill-rule="nonzero"/><path fill="#2e1b5b" d="M 14.285156 257.214844 L 28.570312 257.214844 L 28.570312 271.507812 L 14.285156 271.507812 Z M 14.285156 257.214844 " fill-opacity="0.5" fill-rule="nonzero"/><path fill="#2e1b5b" d="M 28.570312 271.507812 L 42.855469 271.507812 L 42.855469 285.804688 L 28.570312 285.804688 Z M 28.570312 271.507812 " fill-opacity="0.5" fill-rule="nonzero"/><path fill="#2e1b5b" d="M 114.285156 271.507812 L 142.855469 271.507812 L 142.855469 285.804688 L 114.285156 285.804688 Z M 114.285156 271.507812 " fill-opacity="0.5" fill-rule="nonzero"/><path fill="#2e1b5b" d="M 142.855469 257.214844 L 171.429688 257.214844 L 171.429688 271.507812 L 142.855469 271.507812 Z M 142.855469 257.214844 " fill-opacity="0.5" fill-rule="nonzero"/><path fill="#2e1b5b" d="M 114.285156 157.148438 L 128.570312 157.148438 L 128.570312 185.738281 L 114.285156 185.738281 Z M 114.285156 157.148438 " fill-opacity="1" fill-rule="nonzero"/><path fill="#2e1b5b" d="M 171.429688 157.148438 L 185.714844 157.148438 L 185.714844 185.738281 L 171.429688 185.738281 Z M 171.429688 157.148438 " fill-opacity="1" fill-rule="nonzero"/><path fill="#b8ff85" d="M 185.714844 114.261719 L 214.285156 114.261719 L 214.285156 128.558594 L 185.714844 128.558594 Z M 185.714844 114.261719 " fill-opacity="1" fill-rule="nonzero"/><path fill="#b8ff85" d="M 214.285156 128.558594 L 228.570312 128.558594 L 228.570312 142.855469 L 214.285156 142.855469 Z M 214.285156 128.558594 " fill-opacity="1" fill-rule="nonzero"/><path fill="#b8ff85" d="M 157.144531 114.261719 L 171.429688 114.261719 L 171.429688 128.558594 L 157.144531 128.558594 Z M 157.144531 114.261719 " fill-opacity="1" fill-rule="nonzero"/><path fill="#b8ff85" d="M 242.855469 157.148438 L 257.144531 157.148438 L 257.144531 171.445312 L 242.855469 171.445312 Z M 242.855469 157.148438 " fill-opacity="1" fill-rule="nonzero"/><path fill="#b8ff85" d="M 257.144531 171.445312 L 271.429688 171.445312 L 271.429688 185.738281 L 257.144531 185.738281 Z M 257.144531 171.445312 " fill-opacity="1" fill-rule="nonzero"/><path fill="#b8ff85" d="M 228.570312 171.445312 L 242.855469 171.445312 L 242.855469 185.738281 L 228.570312 185.738281 Z M 228.570312 171.445312 " fill-opacity="1" fill-rule="nonzero"/><path fill="#009200" d="M 114.285156 171.445312 L 128.570312 171.445312 L 128.570312 185.738281 L 114.285156 185.738281 Z M 114.285156 171.445312 " fill-opacity="1" fill-rule="nonzero"/><path fill="#009200" d="M 171.429688 171.445312 L 185.714844 171.445312 L 185.714844 185.738281 L 171.429688 185.738281 Z M 171.429688 171.445312 " fill-opacity="1" fill-rule="nonzero"/><path stroke-linecap="butt" transform="matrix(0.75, 0, 0, 0.75, 101.999998, 148.499988)" fill="none" stroke-linejoin="miter" d="M 0.00000310667 2.000016 L 128.000014 2.000016 " stroke="#000000" stroke-width="4" stroke-opacity="1" stroke-miterlimit="4"/></svg>