<svg xmlns="http://www.w3.org/2000/svg" xmlns:xlink="http://www.w3.org/1999/xlink" width="400" zoomAndPan="magnify" viewBox="0 0 300 299.999988" height="400" preserveAspectRatio="xMidYMid meet" version="1.0"><defs><clipPath id="0ed4971603"><path d="M 0 64.3125 L 300 64.3125 L 300 236.0625 L 0 236.0625 Z M 0 64.3125 " clip-rule="nonzero"/></clipPath></defs><g clip-path="url(#0ed4971603)"><path fill="#000000" d="M 299.953125 171.65625 L 299.953125 214.59375 L 289.242188 214.59375 L 289.242188 236.0625 L 278.53125 236.0625 L 278.53125 214.59375 L 267.820312 214.59375 L 267.820312 203.859375 L 257.109375 203.859375 L 257.109375 225.328125 L 246.398438 225.328125 L 246.398438 236.0625 L 235.6875 236.0625 L 235.6875 225.328125 L 224.976562 225.328125 L 224.976562 193.125 L 214.265625 193.125 L 214.265625 203.859375 L 192.84375 203.859375 L 192.84375 214.59375 L 171.421875 214.59375 L 171.421875 225.328125 L 160.710938 225.328125 L 160.710938 214.59375 L 150 214.59375 L 150 203.859375 L 139.289062 203.859375 L 139.289062 193.125 L 128.578125 193.125 L 128.578125 182.390625 L 117.867188 182.390625 L 117.867188 171.65625 L 107.15625 171.65625 L 107.15625 193.125 L 96.445312 193.125 L 96.445312 203.859375 L 85.734375 203.859375 L 85.734375 225.328125 L 75.023438 225.328125 L 75.023438 203.859375 L 64.3125 203.859375 L 64.3125 160.921875 L 53.601562 160.921875 L 53.601562 171.65625 L 42.890625 171.65625 L 42.890625 193.125 L 32.179688 193.125 L 32.179688 214.59375 L 21.46875 214.59375 L 21.46875 225.328125 L 10.757812 225.328125 L 10.757812 214.59375 L 0.046875 214.59375 L 0.046875 171.65625 L 10.757812 171.65625 L 10.757812 150.1875 L 21.46875 150.1875 L 21.46875 139.453125 L 32.179688 139.453125 L 32.179688 128.71875 L 42.890625 128.71875 L 42.890625 117.984375 L 53.601562 117.984375 L 53.601562 107.25 L 64.3125 107.25 L 64.3125 96.515625 L 75.023438 96.515625 L 75.023438 85.78125 L 96.445312 85.78125 L 96.445312 75.046875 L 107.15625 75.046875 L 107.15625 64.3125 L 117.867188 64.3125 L 117.867188 75.046875 L 128.578125 75.046875 L 128.578125 107.25 L 139.289062 107.25 L 139.289062 128.71875 L 150 128.71875 L 150 96.515625 L 160.710938 96.515625 L 160.710938 85.78125 L 171.421875 85.78125 L 171.421875 96.515625 L 203.554688 96.515625 L 203.554688 85.78125 L 214.265625 85.78125 L 214.265625 96.515625 L 224.976562 96.515625 L 224.976562 128.71875 L 235.6875 128.71875 L 235.6875 107.25 L 246.398438 107.25 L 246.398438 96.515625 L 257.109375 96.515625 L 257.109375 107.25 L 267.820312 107.25 L 267.820312 117.984375 L 278.53125 117.984375 L 278.53125 139.453125 L 289.242188 139.453125 L 289.242188 171.65625 Z M 299.953125 171.65625 " fill-opacity="1" fill-rule="nonzero"/></g><path fill="#a595cf" d="M 160.710938 96.515625 L 171.421875 96.515625 L 171.421875 107.25 L 160.710938 107.25 Z M 160.710938 96.515625 " fill-opacity="1" fill-rule="nonzero"/><path fill="#a595cf" d="M 203.554688 96.515625 L 214.265625 96.515625 L 214.265625 107.25 L 203.554688 107.25 Z M 203.554688 96.515625 " fill-opacity="1" fill-rule="nonzero"/><path fill="#ffec4b" d="M 171.421875 107.25 L 182.132812 107.25 L 182.132812 117.984375 L 171.421875 117.984375 Z M 171.421875 107.25 " fill-opacity="1" fill-rule="nonzero"/><path fill="#ffec4b" d="M 192.84375 107.25 L 203.554688 107.25 L 203.554688 117.984375 L 192.84375 117.984375 Z M 192.84375 107.25 " fill-opacity="1" fill-rule="nonzero"/><path fill="#746ba6" d="M 117.867188 75.046875 L 117.867188 107.25 L 107.15625 107.25 L 107.15625 96.515625 L 96.445312 96.515625 L 96.445312 85.78125 L 107.15625 85.78125 L 107.15625 75.046875 Z M 117.867188 75.046875 " fill-opacity="1" fill-rule="nonzero"/><path fill="#746ba6" d="M 75.023438 96.515625 L 96.445312 96.515625 L 96.445312 107.25 L 75.023438 107.25 Z M 75.023438 96.515625 " fill-opacity="1" fill-rule="nonzero"/><path fill="#746ba6" d="M 64.3125 107.25 L 75.023438 107.25 L 75.023438 117.984375 L 64.3125 117.984375 Z M 64.3125 107.25 " fill-opacity="1" fill-rule="nonzero"/><path fill="#746ba6" d="M 117.867188 107.25 L 128.578125 107.25 L 128.578125 128.71875 L 117.867188 128.71875 Z M 117.867188 107.25 " fill-opacity="1" fill-rule="nonzero"/><path fill="#746ba6" d="M 182.132812 107.25 L 192.84375 107.25 L 192.84375 117.984375 L 182.132812 117.984375 Z M 182.132812 107.25 " fill-opacity="1" fill-rule="nonzero"/><path fill="#746ba6" d="M 53.601562 117.984375 L 64.3125 117.984375 L 64.3125 128.71875 L 53.601562 128.71875 Z M 53.601562 117.984375 " fill-opacity="1" fill-rule="nonzero"/><path fill="#746ba6" d="M 267.820312 117.984375 L 267.820312 139.453125 L 257.109375 139.453125 L 257.109375 128.71875 L 246.398438 128.71875 L 246.398438 107.25 L 257.109375 107.25 L 257.109375 117.984375 Z M 267.820312 117.984375 " fill-opacity="1" fill-rule="nonzero"/><path fill="#746ba6" d="M 42.890625 128.71875 L 53.601562 128.71875 L 53.601562 139.453125 L 42.890625 139.453125 Z M 42.890625 128.71875 " fill-opacity="1" fill-rule="nonzero"/><path fill="#746ba6" d="M 128.578125 128.71875 L 139.289062 128.71875 L 139.289062 139.453125 L 128.578125 139.453125 Z M 128.578125 128.71875 " fill-opacity="1" fill-rule="nonzero"/><path fill="#746ba6" d="M 235.6875 128.71875 L 246.398438 128.71875 L 246.398438 139.453125 L 235.6875 139.453125 Z M 235.6875 128.71875 " fill-opacity="1" fill-rule="nonzero"/><path fill="#746ba6" d="M 32.179688 139.453125 L 42.890625 139.453125 L 42.890625 150.1875 L 32.179688 150.1875 Z M 32.179688 139.453125 " fill-opacity="1" fill-rule="nonzero"/><path fill="#746ba6" d="M 139.289062 139.453125 L 150 139.453125 L 150 150.1875 L 139.289062 150.1875 Z M 139.289062 139.453125 " fill-opacity="1" fill-rule="nonzero"/><path fill="#746ba6" d="M 224.976562 139.453125 L 235.6875 139.453125 L 235.6875 150.1875 L 224.976562 150.1875 Z M 224.976562 139.453125 " fill-opacity="1" fill-rule="nonzero"/><path fill="#746ba6" d="M 267.820312 139.453125 L 278.53125 139.453125 L 278.53125 160.921875 L 267.820312 160.921875 Z M 267.820312 139.453125 " fill-opacity="1" fill-rule="nonzero"/><path fill="#746ba6" d="M 21.46875 150.1875 L 32.179688 150.1875 L 32.179688 160.921875 L 21.46875 160.921875 Z M 21.46875 150.1875 " fill-opacity="1" fill-rule="nonzero"/><path fill="#746ba6" d="M 203.554688 150.1875 L 214.265625 150.1875 L 214.265625 160.921875 L 203.554688 160.921875 Z M 203.554688 150.1875 " fill-opacity="1" fill-rule="nonzero"/><path fill="#746ba6" d="M 150 160.921875 L 160.710938 160.921875 L 160.710938 171.65625 L 150 171.65625 Z M 150 160.921875 " fill-opacity="1" fill-rule="nonzero"/><path fill="#746ba6" d="M 192.84375 160.921875 L 203.554688 160.921875 L 203.554688 171.65625 L 192.84375 171.65625 Z M 192.84375 160.921875 " fill-opacity="1" fill-rule="nonzero"/><path fill="#746ba6" d="M 192.84375 171.65625 L 192.84375 182.390625 L 182.132812 182.390625 L 182.132812 193.125 L 160.710938 193.125 L 160.710938 171.65625 Z M 192.84375 171.65625 " fill-opacity="1" fill-rule="nonzero"/><path fill="#544b7c" d="M 75.023438 107.25 L 85.734375 107.25 L 85.734375 117.984375 L 75.023438 117.984375 Z M 75.023438 107.25 " fill-opacity="1" fill-rule="nonzero"/><path fill="#544b7c" d="M 117.867188 107.25 L 117.867188 117.984375 L 107.15625 117.984375 L 107.15625 128.71875 L 96.445312 128.71875 L 96.445312 107.25 Z M 117.867188 107.25 " fill-opacity="1" fill-rule="nonzero"/><path fill="#544b7c" d="M 160.710938 107.25 L 171.421875 107.25 L 171.421875 117.984375 L 160.710938 117.984375 Z M 160.710938 107.25 " fill-opacity="1" fill-rule="nonzero"/><path fill="#544b7c" d="M 203.554688 107.25 L 214.265625 107.25 L 214.265625 117.984375 L 203.554688 117.984375 Z M 203.554688 107.25 " fill-opacity="1" fill-rule="nonzero"/><path fill="#544b7c" d="M 96.445312 128.71875 L 96.445312 160.921875 L 85.734375 160.921875 L 85.734375 193.125 L 75.023438 193.125 L 75.023438 150.1875 L 85.734375 150.1875 L 85.734375 128.71875 Z M 96.445312 128.71875 " fill-opacity="1" fill-rule="nonzero"/><path fill="#544b7c" d="M 171.421875 117.984375 L 203.554688 117.984375 L 203.554688 139.453125 L 171.421875 139.453125 Z M 171.421875 117.984375 " fill-opacity="1" fill-rule="nonzero"/><path fill="#544b7c" d="M 246.398438 139.453125 L 246.398438 193.125 L 235.6875 193.125 L 235.6875 171.65625 L 224.976562 171.65625 L 224.976562 160.921875 L 214.265625 160.921875 L 214.265625 150.1875 L 235.6875 150.1875 L 235.6875 139.453125 Z M 246.398438 139.453125 " fill-opacity="1" fill-rule="nonzero"/><path fill="#544b7c" d="M 257.109375 139.453125 L 267.820312 139.453125 L 267.820312 150.1875 L 257.109375 150.1875 Z M 257.109375 139.453125 " fill-opacity="1" fill-rule="nonzero"/><path fill="#544b7c" d="M 32.179688 150.1875 L 42.890625 150.1875 L 42.890625 160.921875 L 32.179688 160.921875 Z M 32.179688 150.1875 " fill-opacity="1" fill-rule="nonzero"/><path fill="#544b7c" d="M 192.84375 150.1875 L 203.554688 150.1875 L 203.554688 160.921875 L 192.84375 160.921875 Z M 192.84375 150.1875 " fill-opacity="1" fill-rule="nonzero"/><path fill="#544b7c" d="M 21.46875 160.921875 L 32.179688 160.921875 L 32.179688 171.65625 L 21.46875 171.65625 Z M 21.46875 160.921875 " fill-opacity="1" fill-rule="nonzero"/><path fill="#544b7c" d="M 203.554688 160.921875 L 214.265625 160.921875 L 214.265625 171.65625 L 203.554688 171.65625 Z M 203.554688 160.921875 " fill-opacity="1" fill-rule="nonzero"/><path fill="#544b7c" d="M 267.820312 160.921875 L 278.53125 160.921875 L 278.53125 171.65625 L 267.820312 171.65625 Z M 267.820312 160.921875 " fill-opacity="1" fill-rule="nonzero"/><path fill="#544b7c" d="M 10.757812 171.65625 L 21.46875 171.65625 L 21.46875 182.390625 L 10.757812 182.390625 Z M 10.757812 171.65625 " fill-opacity="1" fill-rule="nonzero"/><path fill="#544b7c" d="M 192.84375 160.921875 L 192.84375 171.65625 L 160.710938 171.65625 L 160.710938 160.921875 L 150 160.921875 L 150 171.65625 L 160.710938 171.65625 L 160.710938 193.125 L 150 193.125 L 150 182.390625 L 139.289062 182.390625 L 139.289062 171.65625 L 128.578125 171.65625 L 128.578125 160.921875 L 117.867188 160.921875 L 117.867188 150.1875 L 128.578125 150.1875 L 128.578125 139.453125 L 139.289062 139.453125 L 139.289062 150.1875 L 150 150.1875 L 150 139.453125 L 160.710938 139.453125 L 160.710938 150.1875 L 171.421875 150.1875 L 171.421875 160.921875 Z M 192.84375 160.921875 " fill-opacity="1" fill-rule="nonzero"/><path fill="#544b7c" d="M 192.84375 171.65625 L 203.554688 171.65625 L 203.554688 182.390625 L 192.84375 182.390625 Z M 192.84375 171.65625 " fill-opacity="1" fill-rule="nonzero"/><path fill="#544b7c" d="M 278.53125 171.65625 L 289.242188 171.65625 L 289.242188 193.125 L 278.53125 193.125 Z M 278.53125 171.65625 " fill-opacity="1" fill-rule="nonzero"/><path fill="#544b7c" d="M 182.132812 182.390625 L 192.84375 182.390625 L 192.84375 193.125 L 182.132812 193.125 Z M 182.132812 182.390625 " fill-opacity="1" fill-rule="nonzero"/><path fill="#544b7c" d="M 160.710938 193.125 L 182.132812 193.125 L 182.132812 203.859375 L 160.710938 203.859375 Z M 160.710938 193.125 " fill-opacity="1" fill-rule="nonzero"/><path fill="#333068" d="M 160.710938 117.984375 L 171.421875 117.984375 L 171.421875 128.71875 L 160.710938 128.71875 Z M 160.710938 117.984375 " fill-opacity="1" fill-rule="nonzero"/><path fill="#333068" d="M 203.554688 117.984375 L 214.265625 117.984375 L 214.265625 128.71875 L 203.554688 128.71875 Z M 203.554688 117.984375 " fill-opacity="1" fill-rule="nonzero"/><path fill="#333068" d="M 150 128.71875 L 160.710938 128.71875 L 160.710938 139.453125 L 150 139.453125 Z M 150 128.71875 " fill-opacity="1" fill-rule="nonzero"/><path fill="#333068" d="M 128.578125 128.71875 L 128.578125 150.1875 L 117.867188 150.1875 L 117.867188 160.921875 L 107.15625 160.921875 L 107.15625 171.65625 L 96.445312 171.65625 L 96.445312 193.125 L 85.734375 193.125 L 85.734375 160.921875 L 96.445312 160.921875 L 96.445312 150.1875 L 107.15625 150.1875 L 107.15625 128.71875 Z M 128.578125 128.71875 " fill-opacity="1" fill-rule="nonzero"/><path fill="#333068" d="M 160.710938 139.453125 L 171.421875 139.453125 L 171.421875 150.1875 L 160.710938 150.1875 Z M 160.710938 139.453125 " fill-opacity="1" fill-rule="nonzero"/><path fill="#333068" d="M 203.554688 139.453125 L 214.265625 139.453125 L 214.265625 150.1875 L 203.554688 150.1875 Z M 203.554688 139.453125 " fill-opacity="1" fill-rule="nonzero"/><path fill="#333068" d="M 42.890625 150.1875 L 53.601562 150.1875 L 53.601562 160.921875 L 42.890625 160.921875 Z M 42.890625 150.1875 " fill-opacity="1" fill-rule="nonzero"/><path fill="#333068" d="M 75.023438 128.71875 L 75.023438 160.921875 L 64.3125 160.921875 L 64.3125 150.1875 L 53.601562 150.1875 L 53.601562 139.453125 L 64.3125 139.453125 L 64.3125 128.71875 Z M 75.023438 128.71875 " fill-opacity="1" fill-rule="nonzero"/><path fill="#333068" d="M 171.421875 150.1875 L 192.84375 150.1875 L 192.84375 160.921875 L 171.421875 160.921875 Z M 171.421875 150.1875 " fill-opacity="1" fill-rule="nonzero"/><path fill="#333068" d="M 32.179688 160.921875 L 42.890625 160.921875 L 42.890625 171.65625 L 32.179688 171.65625 Z M 32.179688 160.921875 " fill-opacity="1" fill-rule="nonzero"/><path fill="#333068" d="M 117.867188 160.921875 L 128.578125 160.921875 L 128.578125 171.65625 L 117.867188 171.65625 Z M 117.867188 160.921875 " fill-opacity="1" fill-rule="nonzero"/><path fill="#333068" d="M 267.820312 160.921875 L 267.820312 171.65625 L 257.109375 171.65625 L 257.109375 203.859375 L 246.398438 203.859375 L 246.398438 214.59375 L 235.6875 214.59375 L 235.6875 193.125 L 246.398438 193.125 L 246.398438 150.1875 L 257.109375 150.1875 L 257.109375 160.921875 Z M 267.820312 160.921875 " fill-opacity="1" fill-rule="nonzero"/><path fill="#333068" d="M 32.179688 171.65625 L 32.179688 193.125 L 21.46875 193.125 L 21.46875 214.59375 L 10.757812 214.59375 L 10.757812 182.390625 L 21.46875 182.390625 L 21.46875 171.65625 Z M 32.179688 171.65625 " fill-opacity="1" fill-rule="nonzero"/><path fill="#333068" d="M 128.578125 171.65625 L 139.289062 171.65625 L 139.289062 182.390625 L 128.578125 182.390625 Z M 128.578125 171.65625 " fill-opacity="1" fill-rule="nonzero"/><path fill="#333068" d="M 235.6875 171.65625 L 235.6875 193.125 L 224.976562 193.125 L 224.976562 182.390625 L 214.265625 182.390625 L 214.265625 193.125 L 192.84375 193.125 L 192.84375 182.390625 L 203.554688 182.390625 L 203.554688 171.65625 L 214.265625 171.65625 L 214.265625 160.921875 L 224.976562 160.921875 L 224.976562 171.65625 Z M 235.6875 171.65625 " fill-opacity="1" fill-rule="nonzero"/><path fill="#333068" d="M 267.820312 171.65625 L 278.53125 171.65625 L 278.53125 193.125 L 267.820312 193.125 Z M 267.820312 171.65625 " fill-opacity="1" fill-rule="nonzero"/><path fill="#333068" d="M 139.289062 182.390625 L 150 182.390625 L 150 193.125 L 139.289062 193.125 Z M 139.289062 182.390625 " fill-opacity="1" fill-rule="nonzero"/><path fill="#333068" d="M 75.023438 193.125 L 85.734375 193.125 L 85.734375 203.859375 L 75.023438 203.859375 Z M 75.023438 193.125 " fill-opacity="1" fill-rule="nonzero"/><path fill="#333068" d="M 150 193.125 L 160.710938 193.125 L 160.710938 203.859375 L 150 203.859375 Z M 150 193.125 " fill-opacity="1" fill-rule="nonzero"/><path fill="#333068" d="M 182.132812 193.125 L 192.84375 193.125 L 192.84375 203.859375 L 182.132812 203.859375 Z M 182.132812 193.125 " fill-opacity="1" fill-rule="nonzero"/><path fill="#333068" d="M 278.53125 193.125 L 289.242188 193.125 L 289.242188 214.59375 L 278.53125 214.59375 Z M 278.53125 193.125 " fill-opacity="1" fill-rule="nonzero"/><path fill="#333068" d="M 160.710938 203.859375 L 171.421875 203.859375 L 171.421875 214.59375 L 160.710938 214.59375 Z M 160.710938 203.859375 " fill-opacity="1" fill-rule="nonzero"/><path fill="#242158" d="M 96.445312 96.515625 L 107.15625 96.515625 L 107.15625 107.25 L 96.445312 107.25 Z M 96.445312 96.515625 " fill-opacity="1" fill-rule="nonzero"/><path fill="#242158" d="M 96.445312 107.25 L 96.445312 128.71875 L 85.734375 128.71875 L 85.734375 150.1875 L 75.023438 150.1875 L 75.023438 128.71875 L 64.3125 128.71875 L 64.3125 117.984375 L 85.734375 117.984375 L 85.734375 107.25 Z M 96.445312 107.25 " fill-opacity="1" fill-rule="nonzero"/><path fill="#242158" d="M 107.15625 117.984375 L 117.867188 117.984375 L 117.867188 128.71875 L 107.15625 128.71875 Z M 107.15625 117.984375 " fill-opacity="1" fill-rule="nonzero"/><path fill="#242158" d="M 53.601562 128.71875 L 64.3125 128.71875 L 64.3125 139.453125 L 53.601562 139.453125 Z M 53.601562 128.71875 " fill-opacity="1" fill-rule="nonzero"/><path fill="#242158" d="M 96.445312 128.71875 L 107.15625 128.71875 L 107.15625 150.1875 L 96.445312 150.1875 Z M 96.445312 128.71875 " fill-opacity="1" fill-rule="nonzero"/><path fill="#242158" d="M 160.710938 128.71875 L 171.421875 128.71875 L 171.421875 139.453125 L 160.710938 139.453125 Z M 160.710938 128.71875 " fill-opacity="1" fill-rule="nonzero"/><path fill="#242158" d="M 246.398438 128.71875 L 257.109375 128.71875 L 257.109375 150.1875 L 246.398438 150.1875 Z M 246.398438 128.71875 " fill-opacity="1" fill-rule="nonzero"/><path fill="#242158" d="M 42.890625 139.453125 L 53.601562 139.453125 L 53.601562 150.1875 L 42.890625 150.1875 Z M 42.890625 139.453125 " fill-opacity="1" fill-rule="nonzero"/><path fill="#242158" d="M 171.421875 139.453125 L 203.554688 139.453125 L 203.554688 150.1875 L 171.421875 150.1875 Z M 171.421875 139.453125 " fill-opacity="1" fill-rule="nonzero"/><path fill="#242158" d="M 257.109375 150.1875 L 267.820312 150.1875 L 267.820312 160.921875 L 257.109375 160.921875 Z M 257.109375 150.1875 " fill-opacity="1" fill-rule="nonzero"/><path fill="#242158" d="M 235.6875 214.59375 L 246.398438 214.59375 L 246.398438 225.328125 L 235.6875 225.328125 Z M 235.6875 214.59375 " fill-opacity="1" fill-rule="nonzero"/></svg>