<svg xmlns="http://www.w3.org/2000/svg" xmlns:xlink="http://www.w3.org/1999/xlink" width="400" zoomAndPan="magnify" viewBox="0 0 300 299.999988" height="400" preserveAspectRatio="xMidYMid meet" version="1.0"><path fill="#668529" d="M 241.921875 147.195312 C 241.410156 146.347656 243.195312 133.289062 236.070312 134.132812 C 228.945312 134.980469 232.261719 142.023438 232.261719 142.023438 C 232.261719 142.023438 228.015625 139.308594 225.71875 143.296875 C 223.441406 147.28125 226.066406 149.0625 226.066406 149.0625 C 226.066406 149.0625 219.914062 148.636719 221.085938 157.589844 C 222.238281 166.53125 232.003906 166.035156 234.796875 164.070312 C 237.601562 162.121094 241.921875 147.195312 241.921875 147.195312 " fill-opacity="1" fill-rule="nonzero"/><path fill="#668529" d="M 66.003906 152.023438 C 66.003906 152.023438 61.933594 141.769531 63.96875 141.089844 C 66.003906 140.410156 68.804688 146.09375 69.058594 145.925781 C 69.3125 145.753906 75.589844 142.871094 76.777344 145.332031 C 77.964844 147.789062 74.230469 152.371094 74.484375 152.023438 C 74.742188 151.695312 80.792969 151.183594 81.667969 154.320312 C 82.546875 157.453125 78.917969 161.699219 78.917969 161.699219 C 78.917969 161.699219 85.089844 161.984375 83.816406 166.125 C 82.546875 170.265625 74.910156 173.234375 74.824219 172.980469 C 74.742188 172.726562 66.003906 152.023438 66.003906 152.023438 " fill-opacity="1" fill-rule="nonzero"/><path fill="#668529" d="M 127.433594 144.175781 C 127.433594 144.175781 112.910156 137.613281 109.855469 139.734375 C 106.804688 141.851562 102.394531 151.273438 104.171875 155.339844 C 105.957031 159.40625 113.804688 157.800781 113.402344 159.839844 C 112.996094 161.863281 109.601562 164.085938 111.640625 167.683594 C 113.675781 171.285156 123.9375 170.355469 123.9375 170.355469 C 123.9375 170.355469 122.242188 171.886719 127.078125 175.273438 C 131.910156 178.664062 138.949219 172.980469 138.949219 172.050781 C 138.949219 171.121094 165.496094 161.191406 166.003906 162.375 C 166.515625 163.558594 173.683594 168.570312 175.996094 165.089844 C 178.304688 161.609375 174.871094 157.199219 176.804688 157.289062 C 178.738281 157.378906 185.011719 159.675781 186.285156 155.339844 C 187.558594 151.019531 190.695312 141.6875 182.894531 139.3125 C 175.078125 136.933594 127.433594 144.175781 127.433594 144.175781 " fill-opacity="1" fill-rule="nonzero"/><path fill="#4b5e22" d="M 112.785156 143.632812 C 112.785156 143.632812 111.46875 152.371094 114.523438 153.898438 C 117.574219 155.429688 120.207031 154.320312 121.394531 154.828125 C 122.578125 155.339844 117.914062 158.476562 121.394531 161.953125 C 124.871094 165.433594 128.941406 159.074219 129.28125 159.585938 C 129.621094 160.09375 136.308594 165.210938 138.695312 163.003906 C 141.085938 160.785156 165.839844 158.476562 165.839844 158.476562 C 165.839844 158.476562 169.230469 162.375 171.691406 160.261719 C 174.148438 158.144531 173.925781 152.460938 173.925781 152.460938 C 173.925781 152.460938 178.546875 155.59375 181.90625 151.605469 C 185.265625 147.621094 179.761719 138.882812 179.761719 138.882812 C 179.761719 138.882812 118.425781 133.03125 112.785156 143.632812 " fill-opacity="1" fill-rule="nonzero"/><path fill="#a79782" d="M 184.5 80.863281 C 184.5 80.863281 179.476562 85.316406 178.5 85.890625 C 177.511719 86.464844 169.949219 103.765625 169.949219 103.765625 L 170.503906 139.734375 L 191.460938 154.828125 C 191.460938 154.828125 197.984375 122.765625 198.105469 118.582031 C 198.210938 114.398438 184.5 80.863281 184.5 80.863281 " fill-opacity="1" fill-rule="nonzero"/><path fill="#a79782" d="M 121.394531 135.238281 C 121.394531 135.238281 112.824219 153.644531 111.976562 153.480469 C 111.128906 153.300781 109.601562 120.957031 107.566406 117.792969 C 105.53125 114.625 104.171875 113.945312 104.171875 113.691406 C 104.171875 113.4375 113.757812 79.761719 113.757812 79.761719 C 113.757812 79.761719 120.289062 98.761719 119.867188 102.917969 C 119.441406 107.074219 121.394531 135.238281 121.394531 135.238281 " fill-opacity="1" fill-rule="nonzero"/><path fill="#55403a" d="M 106.945312 111.457031 L 121.761719 142.445312 C 121.761719 142.445312 140.761719 148.101562 142.230469 149.347656 C 143.703125 150.585938 166.664062 148.101562 166.664062 148.101562 L 185.773438 122.65625 L 167.113281 86.691406 L 128.886719 85.890625 L 106.945312 111.457031 " fill-opacity="1" fill-rule="nonzero"/><path fill="#d7c2a9" d="M 111.976562 153.480469 C 111.976562 153.480469 99.367188 149.683594 97.445312 149.0625 C 95.523438 148.441406 73.582031 143.578125 73.582031 143.578125 C 73.582031 143.578125 79.6875 110.667969 79.6875 107.273438 C 79.6875 103.882812 78.898438 89.289062 78.898438 89.289062 L 113.757812 79.761719 L 105.589844 113.152344 L 108.132812 115.980469 L 111.976562 153.480469 " fill-opacity="1" fill-rule="nonzero"/><path fill="#a79782" d="M 145.480469 54.996094 C 145.480469 54.996094 142.683594 55.335938 142.171875 54.996094 C 141.664062 54.65625 123.175781 72.976562 123.175781 73.230469 C 123.175781 73.488281 134.328125 112.503906 134.328125 112.503906 C 134.328125 112.503906 159.226562 112.421875 159.644531 112.503906 C 160.066406 112.589844 165.359375 97.65625 165.359375 97.65625 L 145.480469 54.996094 " fill-opacity="1" fill-rule="nonzero"/><path fill="#c4b099" d="M 123.175781 73.230469 C 123.175781 73.230469 126.566406 75.859375 126.90625 76.03125 C 127.246094 76.199219 132.25 71.617188 132.589844 71.28125 C 132.929688 70.941406 130.976562 82.136719 130.976562 82.136719 L 132.589844 82.734375 L 145.480469 54.996094 L 142.117188 54.570312 C 142.117188 54.570312 124.417969 71.253906 123.175781 73.230469 " fill-opacity="1" fill-rule="nonzero"/><path fill="#d7c2a9" d="M 145.484375 54.992188 L 132.589844 82.730469 L 142.9375 109.789062 C 142.9375 109.789062 159.390625 110.300781 160.078125 110.300781 C 160.753906 110.300781 167.878906 90.957031 167.878906 90.957031 C 167.878906 90.957031 174.570312 74.671875 174.074219 73.738281 C 173.566406 72.808594 166.351562 66.191406 166.003906 65.683594 C 165.675781 65.171875 145.484375 54.992188 145.484375 54.992188 " fill-opacity="1" fill-rule="nonzero"/><path fill="#55403a" d="M 145.511719 78.320312 C 145.511719 78.320312 144.847656 85.234375 145.269531 85.699219 C 145.695312 86.167969 148.195312 85.617188 148.195312 85.699219 C 148.195312 85.785156 148.027344 77.386719 147.601562 77.300781 C 147.179688 77.21875 145.511719 78.320312 145.511719 78.320312 " fill-opacity="1" fill-rule="nonzero"/><path fill="#55403a" d="M 156.390625 77.296875 C 156.390625 77.296875 157.394531 85.402344 157.574219 85.53125 C 157.738281 85.65625 160.453125 86.464844 160.410156 86.125 C 160.363281 85.785156 159.78125 79.507812 159.269531 78.957031 C 158.761719 78.40625 156.390625 77.296875 156.390625 77.296875 " fill-opacity="1" fill-rule="nonzero"/><path fill="#e8d0b5" d="M 145.484375 54.992188 L 166.484375 64.863281 L 174.628906 73.34375 L 167.878906 90.957031 C 167.878906 90.957031 169.933594 76.679688 169.933594 76.003906 C 169.933594 75.324219 162.988281 67.292969 162.988281 67.292969 L 146.664062 61.753906 L 135.410156 76.664062 L 145.484375 54.992188 " fill-opacity="1" fill-rule="nonzero"/><path fill="#76594f" d="M 117.152344 116.320312 L 148.789062 115.640625 C 148.789062 115.640625 178.050781 117.253906 178.484375 117.507812 C 178.90625 117.761719 171.015625 139.734375 170.503906 139.734375 C 169.996094 139.734375 150.238281 137.101562 151.171875 136.765625 C 152.101562 136.425781 148.707031 119.203125 148.707031 119.203125 L 145.480469 136.679688 C 145.480469 136.679688 123.851562 139.734375 123.175781 138.96875 C 122.496094 138.207031 117.152344 116.320312 117.152344 116.320312 " fill-opacity="1" fill-rule="nonzero"/><path fill="#b5511e" d="M 113.957031 124.578125 C 113.957031 124.578125 112.714844 138.035156 113.957031 139.734375 C 115.203125 141.429688 127.980469 150.03125 129 151.5 C 130.015625 152.96875 138.386719 209.054688 137.820312 211.09375 C 137.253906 213.136719 132.730469 215.054688 132.277344 215.054688 C 131.824219 215.054688 121.988281 210.523438 119.386719 211.664062 C 116.785156 212.789062 103.550781 226.484375 103.550781 226.484375 C 103.550781 226.484375 132.503906 221.609375 134.203125 222.628906 C 135.898438 223.648438 129.113281 227.714844 128.660156 230.101562 C 128.207031 232.46875 134.652344 246.496094 135.332031 245.371094 C 136.011719 244.230469 144.71875 229.304688 148 228.511719 C 151.273438 227.714844 169.035156 229.304688 173.101562 230.429688 C 177.179688 231.570312 185.773438 239.941406 186 239.59375 C 186.226562 239.265625 183.628906 229.875 183.40625 228.40625 C 183.164062 226.933594 178.53125 222.855469 180.570312 221.953125 C 182.609375 221.054688 191.203125 222.058594 196.183594 223.304688 C 201.148438 224.550781 210.089844 228.40625 209.96875 228.058594 C 209.863281 227.714844 202.289062 218.894531 200.023438 216.628906 C 197.761719 214.378906 185.101562 211.996094 181.816406 210.523438 C 178.53125 209.054688 175.035156 203.070312 174.914062 201.703125 C 174.808594 200.355469 167.113281 161.894531 167.566406 159.179688 C 168.015625 156.464844 175.816406 151.035156 177.179688 148.667969 C 178.53125 146.292969 177.058594 140.636719 177.976562 138.148438 C 178.875 135.660156 182.835938 124.578125 182.835938 124.578125 C 182.835938 124.578125 171.40625 134.53125 167.113281 138.828125 C 162.808594 143.125 163.605469 143.578125 160.320312 143.125 C 157.050781 142.671875 155.355469 139.285156 153.34375 137.695312 C 151.320312 136.105469 154.890625 122.542969 154.890625 122.542969 C 154.890625 122.542969 146.191406 131.023438 144.832031 133.398438 C 143.476562 135.773438 144.71875 141.996094 143.585938 143.917969 C 142.457031 145.839844 129.5625 141.316406 128.320312 140.296875 C 127.078125 139.28125 120.742188 134.53125 119.949219 133.285156 C 119.160156 132.042969 113.957031 124.578125 113.957031 124.578125 " fill-opacity="1" fill-rule="nonzero"/><path fill="#9e481d" d="M 169.921875 212.128906 C 166.90625 211.351562 141.984375 212.234375 142.714844 209.144531 C 143.449219 206.070312 141.757812 193.003906 139.378906 175.921875 C 137.003906 158.835938 136.667969 156.359375 143.761719 152.625 C 150.855469 148.894531 165.164062 150.480469 164.941406 148.058594 C 164.835938 146.847656 164.835938 143.863281 164.851562 141.179688 C 162.945312 143.277344 162.839844 143.476562 160.304688 143.125 C 157.425781 142.730469 155.773438 140.082031 154.066406 138.359375 C 153.359375 142.296875 151.589844 149.867188 148.542969 148.058594 C 146.605469 146.90625 145.101562 144.140625 144.058594 141.5625 C 144.003906 142.554688 143.871094 143.394531 143.566406 143.917969 C 142.976562 144.921875 139.179688 144.167969 135.507812 143.074219 C 135.527344 149.527344 119.5625 143.914062 118.691406 143.605469 C 122.871094 146.703125 128.328125 150.554688 128.976562 151.5 C 129.996094 152.96875 138.363281 209.054688 137.800781 211.09375 C 137.234375 213.136719 132.710938 215.054688 132.257812 215.054688 C 132.21875 215.054688 132.101562 215.023438 131.929688 214.949219 C 131.941406 217.320312 130.625 220.246094 129.175781 222.75 C 131.867188 222.480469 133.777344 222.390625 134.179688 222.628906 C 134.480469 222.808594 134.507812 223.09375 134.359375 223.441406 C 135.378906 223.066406 136.390625 222.78125 137.347656 222.628906 C 140.917969 222.074219 143.820312 227.191406 145.507812 230.414062 C 146.46875 229.378906 147.328125 228.675781 147.976562 228.511719 C 149.332031 228.179688 153.164062 228.269531 157.46875 228.554688 C 154.574219 225.585938 151.890625 221.625 153.824219 218.476562 C 157.410156 212.609375 172.933594 212.910156 169.921875 212.128906 " fill-opacity="1" fill-rule="nonzero"/><path fill="#98431d" d="M 137.832031 210.316406 C 137.851562 210.71875 137.847656 211.003906 137.816406 211.109375 C 137.613281 211.859375 136.878906 212.578125 136.011719 213.195312 C 137.386719 215.21875 138.703125 217.574219 139.285156 219.824219 C 140.757812 225.480469 137.589844 226.828125 136.6875 234.628906 C 136.339844 237.628906 136.625 240.285156 137.109375 242.414062 C 138.578125 240.015625 140.738281 236.609375 142.832031 233.761719 C 142.839844 229.753906 143.019531 225.703125 143.585938 223.09375 C 145.054688 216.316406 137.832031 210.316406 137.832031 210.316406 " fill-opacity="1" fill-rule="nonzero"/><path fill="#98431d" d="M 181.90625 236.339844 C 178.816406 231.058594 173.820312 224.714844 167.21875 223.441406 C 155.578125 221.175781 152.746094 218.804688 146.75 208.84375 C 143.269531 203.070312 139.332031 200.730469 136.640625 199.769531 C 136.859375 201.433594 137.054688 202.964844 137.222656 204.34375 C 143.917969 207.644531 143.929688 212.761719 147.089844 217.664062 C 150.375 222.765625 157.949219 224.113281 164.054688 226.605469 C 165.601562 227.234375 166.890625 228.316406 167.953125 229.558594 C 170.21875 229.859375 172.09375 230.175781 173.101562 230.445312 C 175.378906 231.074219 179.054688 233.96875 181.90625 236.339844 " fill-opacity="1" fill-rule="nonzero"/><path fill="#98431d" d="M 127.746094 213.34375 C 128.351562 217.664062 125.621094 221.128906 122.386719 223.605469 C 125.675781 223.15625 128.738281 222.78125 130.933594 222.613281 C 132.226562 220.964844 132.535156 217.921875 132.476562 215.023438 C 132.386719 215.054688 132.3125 215.070312 132.277344 215.070312 C 132.078125 215.070312 130.117188 214.214844 127.746094 213.34375 " fill-opacity="1" fill-rule="nonzero"/><path fill="#98431d" d="M 128.996094 151.515625 C 129.109375 151.664062 129.3125 152.519531 129.585938 153.871094 C 131.679688 155.011719 134.007812 156.210938 136.007812 157.050781 C 139.789062 158.640625 160.050781 170.535156 170.21875 176.550781 C 169.515625 172.738281 168.871094 169.109375 168.390625 166.140625 C 156.886719 160.214844 134.441406 149.332031 126.394531 144.722656 C 119.691406 140.882812 115.578125 136.742188 113.40625 134.132812 C 113.367188 136.777344 113.484375 139.105469 113.953125 139.746094 C 115.195312 141.445312 127.976562 150.046875 128.996094 151.515625 " fill-opacity="1" fill-rule="nonzero"/><path fill="#98431d" d="M 200.023438 216.660156 C 199.214844 215.835938 197.054688 215.011719 194.460938 214.214844 C 187.589844 214.484375 177.359375 214.394531 169.933594 212.128906 C 157.726562 208.394531 152.398438 202.738281 145.394531 192.675781 C 141.503906 187.09375 137.195312 183.808594 134.132812 181.980469 C 134.574219 184.964844 135.003906 187.933594 135.40625 190.785156 C 139.195312 193.46875 144.636719 197.789062 147.542969 202.289062 C 152.296875 209.640625 160.441406 214.171875 172.199219 216.886719 C 181.078125 218.925781 194.535156 217.890625 200.59375 217.246094 C 200.386719 217.019531 200.191406 216.808594 200.023438 216.660156 " fill-opacity="1" fill-rule="nonzero"/><path fill="#98431d" d="M 149.597656 184.753906 C 153.703125 189.988281 168.164062 199.410156 175.996094 204.238281 C 175.363281 203.113281 174.945312 202.171875 174.914062 201.71875 C 174.886719 201.464844 174.585938 199.800781 174.105469 197.265625 C 167.910156 193.171875 158.414062 186.046875 151.5 178.320312 C 144.765625 170.773438 136.609375 167.488281 131.695312 166.125 C 131.976562 167.878906 132.265625 169.726562 132.5625 171.644531 C 136.785156 174.058594 145.40625 179.414062 149.597656 184.753906 " fill-opacity="1" fill-rule="nonzero"/><path fill="#98431d" d="M 153.839844 138.136719 C 153.839844 138.136719 159.570312 144.820312 159.734375 148.554688 C 159.898438 152.28125 168.105469 157.980469 168.105469 157.980469 L 169.949219 155.789062 C 169.949219 155.789062 165.675781 151.09375 164.910156 148.636719 C 164.144531 146.179688 164.96875 141.078125 164.96875 141.078125 C 164.96875 141.078125 161.308594 142.785156 159.945312 142.363281 C 158.578125 141.9375 153.839844 138.136719 153.839844 138.136719 " fill-opacity="1" fill-rule="nonzero"/><path fill="#d65f1c" d="M 142.117188 160.933594 C 142.648438 161.371094 147.703125 166.261719 153.839844 169.304688 C 159.988281 172.363281 166.828125 178.09375 167.625 181.980469 C 168.421875 185.878906 169.605469 191.535156 169.199219 191.128906 C 168.808594 190.738281 159.421875 183.328125 154.558594 179.371094 C 149.695312 175.410156 141.777344 167.746094 140.195312 166.125 C 138.613281 164.503906 140.367188 159.523438 142.117188 160.933594 " fill-opacity="1" fill-rule="nonzero"/><path fill="#d65f1c" d="M 144.039062 183.269531 C 146.246094 185.761719 159.929688 196.738281 162.480469 198.089844 C 165.015625 199.441406 171.585938 204.253906 171.914062 205.15625 C 172.261719 206.070312 175.710938 211.15625 175.710938 211.15625 C 175.710938 211.15625 165.433594 207.960938 159.269531 205.15625 C 153.121094 202.363281 144.039062 189.433594 143.023438 187.738281 C 142.003906 186.046875 144.039062 183.269531 144.039062 183.269531 " fill-opacity="1" fill-rule="nonzero"/><path fill="#d65f1c" d="M 152.128906 125.878906 C 152.128906 125.878906 146.472656 131.644531 146.019531 134.699219 C 145.566406 137.753906 148.28125 144.820312 149.128906 146.234375 C 149.980469 147.648438 151.90625 136.171875 152.128906 135.773438 C 152.355469 135.378906 152.128906 125.878906 152.128906 125.878906 " fill-opacity="1" fill-rule="nonzero"/><path fill="#d65f1c" d="M 179.265625 128.707031 C 178.980469 129.214844 170.65625 138.433594 170.21875 139.703125 C 169.769531 140.976562 168.585938 149.0625 168.585938 149.0625 C 168.585938 149.0625 176.039062 146.292969 176.503906 144.199219 C 176.953125 142.105469 175.484375 139.960938 175.769531 139.109375 C 176.039062 138.261719 179.265625 128.707031 179.265625 128.707031 " fill-opacity="1" fill-rule="nonzero"/><path fill="#d65f1c" d="M 114.691406 129.046875 C 114.691406 129.046875 116.050781 132.550781 117.914062 134.699219 C 119.78125 136.847656 127.808594 142.164062 127.808594 142.164062 C 127.808594 142.164062 115.976562 138.097656 114.691406 136.117188 C 113.40625 134.132812 114.691406 129.046875 114.691406 129.046875 " fill-opacity="1" fill-rule="nonzero"/><path fill="#d65f1c" d="M 147.824219 152.910156 C 147.601562 153.226562 163.214844 160.648438 163.828125 161.160156 C 164.460938 161.671875 162.703125 157.605469 161.339844 155.625 C 159.988281 153.644531 150.808594 148.722656 147.824219 152.910156 " fill-opacity="1" fill-rule="nonzero"/><path fill="#d65f1c" d="M 158.671875 218.054688 C 158.671875 218.054688 168.855469 222.015625 171.945312 222.480469 C 175.050781 222.945312 180.464844 231.554688 180.765625 231.765625 C 181.066406 231.976562 178.949219 221.671875 177.929688 219.808594 C 176.910156 217.933594 158.671875 218.054688 158.671875 218.054688 " fill-opacity="1" fill-rule="nonzero"/><path fill="#d65f1c" d="M 125.507812 214.890625 C 125.378906 214.890625 121.136719 212.25 117.449219 214.890625 C 113.757812 217.515625 108.289062 223.710938 108.328125 223.605469 C 108.371094 223.5 121.097656 220.273438 122.960938 219.210938 C 124.828125 218.144531 125.507812 214.890625 125.507812 214.890625 " fill-opacity="1" fill-rule="nonzero"/><path fill="#d65f1c" d="M 135.644531 224.910156 C 135.644531 224.910156 131.910156 226.890625 130.976562 229.816406 C 130.042969 232.738281 134.019531 239.355469 134.132812 239.234375 C 134.242188 239.101562 136.894531 226.410156 135.644531 224.910156 " fill-opacity="1" fill-rule="nonzero"/><path fill="#d7c2a9" d="M 184.5 80.863281 C 184.664062 80.984375 192.734375 115.699219 191.714844 122.539062 C 190.695312 129.382812 190.695312 137.390625 190.09375 138.136719 C 189.511719 138.882812 191.203125 154.664062 191.460938 154.828125 C 191.714844 154.996094 210.886719 149.796875 212.671875 147.605469 C 214.441406 145.414062 222.839844 138.359375 222.839844 138.359375 C 222.839844 138.359375 221.054688 125.878906 219.539062 122.539062 C 218.011719 119.203125 215.296875 93.25 215.296875 93.25 L 184.5 80.863281 " fill-opacity="1" fill-rule="nonzero"/><path fill="#e8d0b5" d="M 78.898438 89.289062 L 113.757812 79.761719 C 113.757812 79.761719 91.113281 92.003906 89.980469 92.796875 C 88.847656 93.589844 80.253906 108.96875 80.253906 108.96875 L 78.898438 89.289062 " fill-opacity="1" fill-rule="nonzero"/><path fill="#e8d0b5" d="M 184.5 80.863281 L 215.460938 92.484375 L 217.15625 109.132812 L 216.824219 128.707031 L 212.070312 96.046875 L 190.273438 90.960938 L 189.449219 103.828125 L 184.5 80.863281 " fill-opacity="1" fill-rule="nonzero"/><path fill="#e8d0b5" d="M 105.746094 112.503906 L 79.914062 138.136719 L 94.503906 135.097656 L 87.945312 141.429688 L 108.414062 146.355469 L 108.132812 115.980469 L 105.746094 112.503906 " fill-opacity="1" fill-rule="nonzero"/><path fill="#55403a" d="M 56.730469 132.269531 C 56.730469 132.269531 68.972656 153.824219 74.742188 155.339844 C 71.941406 158.730469 79.914062 171.703125 79.914062 171.703125 L 81.273438 178.921875 L 77.964844 182.730469 L 72.367188 187.828125 L 79.660156 203.773438 C 79.660156 203.773438 82.796875 200.714844 82.796875 200.039062 C 82.796875 199.363281 82.460938 191.160156 82.460938 191.160156 C 82.460938 191.160156 93.257812 196.558594 93.671875 196.90625 C 94.078125 197.234375 94.675781 207.253906 94.675781 207.253906 L 78.304688 220.394531 C 78.304688 220.394531 74.824219 226.84375 74.148438 227.011719 C 73.46875 227.191406 56.589844 209.625 55.996094 207.929688 C 55.402344 206.234375 60.011719 153.644531 56.730469 132.269531 " fill-opacity="1" fill-rule="nonzero"/><path fill="#76594f" d="M 56.730469 132.269531 L 67.925781 166.125 L 75.503906 168.796875 C 75.503906 168.796875 91.566406 160.171875 90.546875 157.980469 C 95.296875 159.871094 100.949219 167.550781 102.648438 168.796875 C 104.34375 170.039062 106.945312 168.34375 106.945312 168.34375 C 106.945312 168.34375 99.367188 188.25 95.183594 189.496094 C 94.730469 185.984375 89.753906 177.058594 89.753906 177.058594 C 89.753906 177.058594 77.652344 186.660156 76.863281 186.660156 C 76.070312 186.660156 83.535156 207.359375 83.644531 207.03125 C 83.761719 206.683594 88.398438 202.726562 88.398438 202.726562 L 87.71875 189.945312 L 106.378906 200.039062 C 106.378906 200.039062 99.140625 211.53125 99.140625 213.34375 C 99.140625 215.160156 79.6875 225.34375 79.351562 225.570312 C 79.007812 225.796875 57.972656 208.726562 54.46875 207.808594 C 56.164062 198.539062 52.054688 170.386719 51.074219 169.246094 C 50.09375 168.121094 53.449219 159.988281 51.074219 154.828125 C 54.355469 145.613281 56.730469 132.269531 56.730469 132.269531 " fill-opacity="1" fill-rule="nonzero"/><path fill="#997468" d="M 57.832031 135.605469 L 68.804688 164.925781 L 75.503906 168.796875 C 75.503906 168.796875 90.09375 166.964844 92.042969 161.699219 C 95.183594 165.765625 102.476562 172.726562 102.476562 172.726562 L 106.945312 167.476562 C 106.945312 167.476562 105.277344 186.914062 95.183594 189.496094 C 96.539062 184.859375 97.898438 176.550781 97.898438 176.550781 L 91.367188 168.734375 C 91.367188 168.734375 76.945312 176.714844 75.929688 178.320312 C 74.910156 179.941406 77.457031 199.769531 77.457031 199.769531 L 61.507812 193.769531 C 61.507812 193.769531 65.664062 171.886719 64.984375 169.589844 C 64.304688 167.296875 57.832031 135.605469 57.832031 135.605469 " fill-opacity="1" fill-rule="nonzero"/><path fill="#997468" d="M 76.863281 202.921875 C 76.863281 202.921875 84.070312 210.898438 84.410156 212.25 C 84.75 213.613281 95.859375 208.273438 95.859375 208.273438 L 91.707031 193.078125 L 102.816406 201.148438 L 97.386719 211.664062 C 97.386719 211.664062 78.769531 224.429688 78.917969 223.605469 C 79.066406 222.78125 81.101562 215.984375 80.253906 214.199219 C 79.40625 212.429688 75.308594 207.164062 75.308594 207.164062 C 75.308594 207.164062 63.289062 205.980469 63.542969 205.890625 C 63.796875 205.816406 76.863281 202.921875 76.863281 202.921875 " fill-opacity="1" fill-rule="nonzero"/><path fill="#55403a" d="M 243.269531 129.175781 C 243.269531 129.175781 231.03125 150.734375 225.253906 152.25 C 228.058594 155.640625 220.078125 168.613281 220.078125 168.613281 L 218.730469 175.828125 L 222.03125 179.65625 L 227.640625 184.738281 L 220.335938 200.683594 C 220.335938 200.683594 217.199219 197.625 217.199219 196.949219 C 217.199219 196.273438 217.546875 188.070312 217.546875 188.070312 C 217.546875 188.070312 206.746094 193.46875 206.324219 193.816406 C 205.921875 194.144531 205.320312 204.164062 205.320312 204.164062 L 221.699219 217.304688 C 221.699219 217.304688 225.164062 223.753906 225.855469 223.921875 C 226.53125 224.101562 243.40625 206.535156 244.003906 204.839844 C 244.605469 203.144531 239.984375 150.554688 243.269531 129.175781 " fill-opacity="1" fill-rule="nonzero"/><path fill="#76594f" d="M 243.269531 129.179688 L 232.078125 163.035156 L 224.488281 165.703125 C 224.488281 165.703125 208.441406 157.078125 209.460938 154.890625 C 204.703125 156.78125 199.050781 164.460938 197.355469 165.703125 C 195.660156 166.949219 193.050781 165.253906 193.050781 165.253906 C 193.050781 165.253906 200.625 185.160156 204.808594 186.40625 C 205.273438 182.894531 210.238281 173.96875 210.238281 173.96875 C 210.238281 173.96875 222.34375 183.585938 223.140625 183.585938 C 223.933594 183.585938 216.464844 204.269531 216.34375 203.941406 C 216.238281 203.59375 211.605469 199.636719 211.605469 199.636719 L 212.28125 186.855469 L 193.621094 196.949219 C 193.621094 196.949219 200.863281 208.441406 200.863281 210.253906 C 200.863281 212.085938 220.304688 222.253906 220.648438 222.480469 C 220.996094 222.703125 242.023438 205.636719 245.535156 204.71875 C 243.839844 195.449219 247.949219 167.296875 248.925781 166.15625 C 249.898438 165.03125 246.554688 156.898438 248.925781 151.738281 C 245.640625 142.523438 243.269531 129.179688 243.269531 129.179688 " fill-opacity="1" fill-rule="nonzero"/><path fill="#997468" d="M 242.160156 132.515625 L 231.195312 161.835938 L 224.488281 165.703125 C 224.488281 165.703125 209.910156 163.875 207.960938 158.609375 C 204.808594 162.691406 197.519531 169.636719 197.519531 169.636719 L 193.050781 164.386719 C 193.050781 164.386719 194.730469 183.824219 204.808594 186.40625 C 203.460938 181.769531 202.109375 173.460938 202.109375 173.460938 L 208.636719 165.644531 C 208.636719 165.644531 223.050781 173.625 224.070312 175.230469 C 225.089844 176.851562 222.539062 196.679688 222.539062 196.679688 L 238.484375 190.679688 C 238.484375 190.679688 234.328125 168.796875 235.019531 166.5 C 235.695312 164.203125 242.160156 132.515625 242.160156 132.515625 " fill-opacity="1" fill-rule="nonzero"/><path fill="#997468" d="M 223.140625 199.828125 C 223.140625 199.828125 215.925781 207.808594 215.59375 209.160156 C 215.25 210.523438 204.136719 205.183594 204.136719 205.183594 L 208.289062 189.988281 L 197.191406 198.058594 L 202.621094 208.574219 C 202.621094 208.574219 221.234375 221.339844 221.085938 220.515625 C 220.933594 219.691406 218.894531 212.894531 219.75 211.109375 C 220.589844 209.339844 224.683594 204.074219 224.683594 204.074219 C 224.683594 204.074219 236.714844 202.890625 236.460938 202.800781 C 236.203125 202.726562 223.140625 199.828125 223.140625 199.828125 " fill-opacity="1" fill-rule="nonzero"/><path fill="#76594f" d="M 197.21875 115.21875 C 197.21875 115.21875 194.941406 131.65625 194.25 132.515625 C 193.574219 133.371094 214.363281 139.449219 214.363281 138.359375 L 214.363281 119.460938 L 210.960938 100.628906 L 194.234375 99.949219 C 194.234375 99.949219 205.289062 121.582031 205.320312 121.582031 C 205.363281 121.582031 209.984375 117 209.984375 117 L 208.425781 106.566406 C 208.425781 106.566406 206.039062 113.777344 206.039062 112.503906 C 206.039062 111.234375 203.671875 105.378906 203.671875 105.378906 L 209.609375 103.9375 L 211.816406 122.539062 L 209.011719 131.417969 C 209.011719 131.417969 199.769531 129.480469 199.769531 129.175781 C 199.769531 128.875 197.21875 115.21875 197.21875 115.21875 " fill-opacity="1" fill-rule="nonzero"/><path fill="#76594f" d="M 81.667969 122.539062 C 81.667969 122.203125 91.167969 95.625 91.621094 95.566406 C 92.074219 95.511719 103.097656 106.3125 103.550781 107.328125 C 104.003906 108.347656 92.609375 124.011719 92.609375 124.011719 L 95.691406 108.40625 L 92.863281 105.011719 C 92.863281 105.011719 87.832031 124.125 87.378906 124.859375 C 86.925781 125.59375 94.617188 130.175781 94.675781 130.117188 C 94.730469 130.0625 101.910156 119.429688 101.910156 119.429688 L 99.421875 140.695312 C 99.421875 140.695312 82.320312 131.363281 82.390625 130.796875 C 82.460938 130.230469 81.667969 122.539062 81.667969 122.539062 " fill-opacity="1" fill-rule="nonzero"/><path fill="#668529" d="M 176.804688 137.980469 C 176.804688 137.980469 179.910156 134.980469 181.5 134.585938 C 183.074219 134.191406 186.929688 136.28125 186.929688 136.28125 C 186.929688 136.28125 183.976562 138.433594 182.398438 138.714844 C 180.824219 138.996094 176.804688 137.980469 176.804688 137.980469 " fill-opacity="1" fill-rule="nonzero"/><path fill="#668529" d="M 145.96875 135.886719 C 145.96875 135.886719 147.441406 132.890625 144.269531 132.269531 C 141.101562 131.644531 138.101562 132.269531 138.101562 132.269531 C 138.101562 132.269531 140.421875 134.417969 140.816406 135.605469 C 141.214844 136.792969 145.96875 135.886719 145.96875 135.886719 " fill-opacity="1" fill-rule="nonzero"/><path fill="#668529" d="M 167.953125 175.921875 C 167.953125 174.734375 166.996094 170.894531 170.671875 169.933594 C 173.054688 173.878906 167.953125 175.921875 167.953125 175.921875 " fill-opacity="1" fill-rule="nonzero"/></svg>