<svg xmlns="http://www.w3.org/2000/svg" xmlns:xlink="http://www.w3.org/1999/xlink" width="400" zoomAndPan="magnify" viewBox="0 0 300 299.999988" height="400" preserveAspectRatio="xMidYMid meet" version="1.0"><defs><clipPath id="c33d097fa7"><path d="M 66 0 L 235.125 0 L 235.125 300 L 66 300 Z M 66 0 " clip-rule="nonzero"/></clipPath><clipPath id="6655799e56"><path d="M 66 0 L 235.125 0 L 235.125 300 L 66 300 Z M 66 0 " clip-rule="nonzero"/></clipPath></defs><g clip-path="url(#c33d097fa7)"><path fill="#000000" d="M 233.726562 84.378906 C 233.09375 82.683594 231.863281 79.585938 229.777344 75.3125 C 228.179688 71.960938 226.035156 67.972656 223.546875 63.246094 C 222.289062 60.914062 220.964844 58.371094 219.617188 55.660156 C 218.183594 52.898438 217.054688 50.074219 215.476562 46.816406 C 213.984375 43.597656 212.558594 40.566406 211.242188 37.730469 C 209.867188 34.960938 208.59375 32.367188 207.421875 29.980469 C 205.054688 25.171875 203.316406 21.164062 201.835938 17.929688 C 201.535156 17.277344 201.300781 16.691406 201.054688 16.085938 C 201.054688 15.695312 201.007812 15.277344 200.871094 14.828125 C 200.871094 14.828125 200.460938 13.757812 199.652344 11.671875 C 198.199219 8.414062 197.105469 6.328125 193.832031 4.632812 C 192.632812 4.066406 191.382812 3.617188 190.164062 3.382812 C 187.582031 2.710938 185.230469 2.875 182.542969 2.769531 C 179.890625 2.730469 176.769531 2.582031 173.816406 2.613281 C 170.765625 2.542969 167.527344 2.652344 163.929688 2.445312 C 160.332031 2.222656 156.480469 2.007812 152.375 1.753906 C 150.339844 1.617188 148.351562 1.5 146.429688 1.375 C 144.507812 1.335938 142.648438 1.316406 140.84375 1.277344 C 137.226562 1.199219 133.863281 1.113281 130.753906 1.035156 C 129.191406 0.996094 127.632812 0.957031 126.425781 0.867188 C 125.109375 0.789062 123.773438 0.671875 122.476562 0.527344 C 119.890625 0.261719 117.445312 0.0195312 115.113281 0.0195312 C 112.851562 -0.078125 110.542969 0.203125 108.398438 0.808594 C 106.535156 1.433594 104.574219 2.484375 103.296875 3.96875 C 103.179688 4.105469 103.113281 4.210938 103.015625 4.347656 C 102.695312 4.613281 102.410156 4.933594 102.1875 5.402344 C 102.1875 5.402344 102.128906 5.527344 102.039062 5.734375 C 101.777344 6.171875 101.601562 6.511719 101.457031 6.777344 C 101.191406 7.222656 101.074219 7.46875 101.074219 7.46875 C 100.792969 8.015625 100.667969 8.5 100.667969 8.941406 C 99.964844 10.558594 99.046875 12.683594 97.878906 15.394531 C 95.167969 21.976562 91.121094 31.722656 85.816406 44.507812 C 80.457031 57.132812 75.621094 66.335938 72.0625 72.320312 C 71.640625 73.070312 71.234375 73.785156 70.851562 74.445312 C 70.421875 75.078125 70.023438 75.664062 69.652344 76.210938 C 68.933594 77.304688 68.316406 78.210938 67.839844 78.941406 C 65.003906 83.027344 67.246094 85.960938 68.296875 90.648438 C 68.296875 90.648438 69.03125 93.359375 70.21875 98.363281 C 71.4375 103.332031 73.113281 110.578125 75.140625 119.519531 C 79.140625 137.386719 84.382812 162.101562 89.601562 189.332031 C 94.808594 216.5625 99.046875 241.492188 101.925781 259.578125 C 102.734375 264.773438 103.84375 269.929688 104.632812 275.128906 C 105.335938 279.640625 104.976562 284.585938 106.195312 288.933594 C 106.214844 289.011719 106.234375 289.089844 106.253906 289.175781 C 106.476562 290.386719 106.738281 291.417969 107.101562 292.304688 C 107.121094 292.414062 107.140625 292.472656 107.160156 292.570312 L 107.21875 292.890625 L 107.34375 293.5625 C 107.421875 294.03125 107.480469 294.488281 107.570312 294.976562 C 107.832031 296.574219 107.609375 298.15625 109.128906 299.0625 C 110.660156 299.980469 114.421875 299.1875 116.058594 299.128906 C 126.578125 298.683594 141.066406 298.078125 156.96875 297.386719 C 160.957031 297.210938 164.816406 296.800781 168.582031 296.554688 C 170.460938 296.421875 172.324219 296.292969 174.128906 296.175781 C 174.996094 296.148438 175.765625 296.214844 176.574219 296.214844 L 177.746094 296.234375 L 179.023438 296.351562 C 182.277344 296.671875 185.835938 297.101562 189.335938 296.859375 C 190.164062 296.820312 190.996094 296.78125 191.804688 296.742188 C 193.121094 296.722656 194.398438 296.613281 195.371094 296.109375 C 196.433594 295.601562 197.027344 294.597656 197.390625 293.542969 C 197.730469 292.472656 197.917969 291.019531 198.082031 290.445312 C 198.648438 287.976562 199.195312 285.355469 199.59375 283.308594 C 199.984375 281.289062 200.265625 279.425781 200.605469 278.109375 C 203.179688 266.761719 205.570312 255.53125 207.988281 243.976562 C 211.390625 227.753906 214.402344 205.117188 218.671875 180.433594 C 218.9375 178.871094 219.199219 177.359375 219.460938 175.820312 C 219.6875 174.289062 219.882812 172.769531 220.105469 171.246094 C 220.535156 168.234375 220.964844 165.261719 221.382812 162.328125 C 222.230469 156.457031 223.039062 150.773438 223.886719 145.441406 C 225.566406 134.71875 227.164062 125.105469 228.585938 116.828125 C 229.882812 108.65625 231.132812 102.222656 232.28125 97.914062 C 232.878906 95.769531 233.316406 94.089844 233.746094 93.039062 C 234.125 91.964844 234.332031 91.402344 234.332031 91.402344 C 234.933594 89.136719 235.238281 87.65625 234.894531 86.359375 C 234.691406 85.53125 234.273438 84.886719 233.726562 84.378906 " fill-opacity="1" fill-rule="nonzero"/></g><path fill="#f2f2f2" d="M 161.296875 78.316406 C 170.910156 77.175781 180.53125 77.265625 190.203125 77.304688 C 190.046875 81.554688 189.785156 85.84375 190.632812 89.988281 C 183.730469 90.289062 176.878906 89.539062 169.972656 89.820312 C 165.140625 90.027344 157.554688 89.136719 157.925781 95.503906 C 159.015625 114.183594 159.84375 132.835938 159.414062 151.542969 C 159.261719 159.179688 159.015625 166.800781 158.792969 174.40625 C 158.585938 181.308594 158.324219 188.183594 158.566406 195.066406 C 158.714844 199.003906 160.75 206.589844 158.734375 210.253906 C 157.457031 212.605469 145.785156 212.359375 145.765625 211.40625 C 145.699219 201.050781 145.542969 190.707031 145.355469 180.375 C 145.015625 162.101562 144.449219 143.792969 143.835938 125.53125 C 143.679688 121.058594 143.230469 116.59375 143.113281 112.117188 C 143.007812 107.507812 143.601562 102.769531 143.09375 98.195312 C 142.179688 90.269531 136.621094 92.84375 130.910156 93.300781 C 129.308594 93.449219 111.75 94.957031 111.75 94.765625 C 111.691406 89.859375 111.691406 84.945312 111.710938 80.050781 C 121.179688 81.007812 130.507812 80.03125 140.054688 79.664062 C 141.78125 79.585938 142.746094 78.355469 142.929688 77.019531 C 143.09375 76.757812 143.230469 76.453125 143.308594 76.085938 C 145.484375 65.894531 144.34375 55.570312 144.140625 45.277344 C 148.144531 44.875 152.222656 44.769531 156.179688 45.421875 C 155.953125 55.082031 157.269531 64.636719 158.265625 74.269531 C 158.285156 74.554688 158.363281 74.816406 158.449219 75.058594 C 158.160156 76.777344 159.113281 78.570312 161.296875 78.316406 " fill-opacity="1" fill-rule="nonzero"/><path fill="#666666" d="M 118.46875 248.25 C 119.316406 248.082031 118.246094 235.398438 114.628906 214.992188 C 112.707031 204.894531 110.171875 192.890625 107.460938 179.5625 C 104.839844 166.257812 101.925781 151.601562 98.890625 136.226562 C 98.101562 132.386719 97.332031 128.585938 96.582031 124.820312 C 95.753906 121.078125 94.941406 117.390625 94.132812 113.753906 C 93.324219 110.140625 92.515625 106.570312 91.746094 103.070312 C 91.367188 101.335938 90.917969 99.601562 90.488281 97.914062 C 90.070312 96.234375 89.582031 94.597656 89.445312 93.28125 C 89.296875 91.925781 89.296875 90.738281 89.640625 89.292969 C 89.765625 88.613281 89.992188 87.863281 90.1875 87.128906 L 90.46875 86.097656 L 90.878906 84.945312 C 91.890625 81.894531 92.894531 78.941406 93.851562 76.066406 C 94.867188 73.238281 95.957031 70.625 96.921875 68.03125 C 97.429688 66.746094 97.917969 65.488281 98.386719 64.277344 C 98.929688 63.019531 99.457031 61.820312 99.964844 60.632812 C 101.960938 55.894531 103.785156 51.632812 105.386719 47.871094 C 106.894531 44.039062 108.09375 40.683594 109.058594 37.972656 C 110.992188 32.515625 111.839844 29.414062 111.390625 29.257812 C 110.941406 29.09375 109.265625 31.839844 106.613281 36.941406 C 105.277344 39.496094 103.746094 42.625 101.925781 46.269531 C 100.042969 49.90625 97.917969 54.03125 95.566406 58.621094 C 94.980469 59.78125 94.398438 60.953125 93.792969 62.152344 C 93.226562 63.398438 92.660156 64.695312 92.066406 65.992188 C 90.9375 68.625 89.660156 71.335938 88.527344 74.164062 C 87.457031 77 86.34375 79.933594 85.214844 82.949219 L 84.785156 84.078125 C 84.589844 84.605469 84.5 84.925781 84.367188 85.375 C 84.101562 86.222656 83.820312 87.03125 83.632812 87.976562 C 83.148438 89.742188 82.992188 91.964844 83.1875 93.992188 C 83.390625 96.050781 83.878906 97.738281 84.238281 99.433594 C 84.667969 101.148438 85.046875 102.835938 85.398438 104.570312 C 86.121094 108.03125 86.851562 111.589844 87.601562 115.1875 C 88.371094 118.796875 89.140625 122.472656 89.933594 126.195312 C 90.671875 129.941406 91.421875 133.742188 92.195312 137.582031 C 95.246094 152.957031 98.441406 167.667969 101.339844 180.957031 C 104.390625 194.207031 107.382812 206.09375 109.917969 216.054688 C 114.6875 235.964844 117.472656 248.441406 118.46875 248.25 Z M 196.335938 94.414062 C 197.253906 93.789062 197.75 92.714844 197.273438 91.324219 C 195.324219 85.882812 196.296875 79.933594 196.355469 74.269531 C 196.375 72.222656 194.71875 71.25 193.140625 71.355469 C 192.875 71.269531 192.613281 71.230469 192.308594 71.230469 C 182.882812 71.210938 173.472656 71.074219 164.085938 71.960938 C 163.0625 62.386719 161.84375 52.898438 162.3125 43.25 C 162.390625 41.472656 161.199219 40.519531 159.84375 40.363281 C 159.472656 40.011719 159.015625 39.757812 158.382812 39.652344 C 152.640625 38.617188 146.828125 38.800781 141.066406 39.535156 C 139.332031 39.757812 138.375 41.132812 138.210938 42.507812 C 138.09375 42.828125 138.035156 43.191406 138.035156 43.578125 C 138.132812 53.613281 139.507812 63.789062 137.585938 73.714844 C 128.199219 74.203125 118.878906 75.195312 109.507812 73.707031 C 107.101562 73.316406 105.558594 75.460938 105.707031 77.285156 C 105.6875 77.398438 105.667969 77.507812 105.667969 77.644531 C 105.648438 84.363281 105.539062 91.097656 105.707031 97.835938 C 105.746094 99.492188 107.0625 100.847656 108.738281 100.867188 C 118.148438 100.992188 127.429688 99.414062 136.816406 98.984375 C 137.949219 137.105469 139.527344 175.078125 139.710938 213.171875 C 139.710938 213.871094 139.917969 214.457031 140.238281 214.90625 C 140.523438 216.144531 141.476562 217.195312 143.09375 217.234375 C 148.613281 217.3125 163.707031 220.589844 164.679688 212.214844 C 165.121094 211.726562 165.402344 211.042969 165.34375 210.15625 C 163.804688 190.511719 164.855469 171.1875 165.488281 151.542969 C 166.074219 133.214844 165.121094 114.828125 164.046875 96.519531 C 173.921875 94.65625 184.011719 96.839844 193.988281 95.855469 C 195.089844 95.730469 195.847656 95.164062 196.335938 94.414062 Z M 213.613281 93.886719 C 213.691406 87.84375 213.515625 84.4375 213.046875 84.378906 C 212.578125 84.324219 211.859375 87.597656 210.960938 93.625 C 210.523438 96.636719 210.015625 100.300781 209.488281 104.570312 C 209.34375 105.644531 209.226562 106.734375 209.078125 107.886719 L 208.980469 108.734375 L 208.960938 108.941406 C 208.941406 108.941406 208.921875 109.066406 208.921875 109.105469 L 208.835938 109.523438 C 208.738281 110.109375 208.640625 110.703125 208.515625 111.308594 C 208.113281 113.714844 207.644531 116.242188 207.179688 118.914062 C 205.335938 129.558594 203.277344 142.261719 201.074219 156.359375 C 200.527344 159.878906 199.984375 163.507812 199.40625 167.203125 C 198.726562 170.886719 198.035156 174.648438 197.332031 178.472656 C 195.957031 186.136719 194.515625 194.070312 193.0625 202.203125 C 191.648438 210.3125 190.273438 218.21875 188.9375 225.875 C 188.148438 230.054688 187.882812 233.867188 187.550781 237.652344 C 187.269531 241.386719 187.015625 245.03125 186.742188 248.609375 C 186.207031 255.6875 185.535156 262.367188 184.324219 268.351562 C 183.671875 271.265625 182.785156 274.164062 181.789062 275.964844 L 181.148438 276.851562 L 180.84375 277.253906 L 180.796875 277.28125 C 180.417969 277.515625 180.152344 277.847656 179.566406 278.0625 C 179.0625 278.304688 178.554688 278.550781 177.949219 278.714844 C 177.363281 278.890625 176.800781 279.113281 176.164062 279.242188 C 171.230469 280.390625 166.320312 280.675781 162.085938 280.996094 C 157.835938 281.296875 154.132812 281.484375 151.082031 281.746094 C 148.046875 282.011719 145.699219 282.292969 144.0625 282.683594 C 142.5 283.042969 141.742188 283.425781 141.742188 283.648438 C 141.761719 283.890625 142.648438 283.949219 144.226562 284.039062 C 145.804688 284.117188 148.125 284.234375 151.140625 284.398438 C 154.160156 284.566406 157.855469 284.742188 162.183594 284.816406 C 166.542969 284.835938 171.476562 284.925781 177.179688 283.949219 C 177.890625 283.851562 178.632812 283.628906 179.382812 283.445312 C 180.113281 283.289062 180.902344 282.984375 181.691406 282.632812 C 182.464844 282.390625 183.3125 281.804688 184.140625 281.242188 L 184.441406 281.015625 L 184.746094 280.695312 L 184.804688 280.636719 L 184.804688 280.617188 L 184.890625 280.488281 L 185.230469 280.070312 L 185.933594 279.222656 C 188.089844 275.984375 188.90625 272.867188 189.84375 269.648438 C 191.421875 263.195312 192.269531 256.339844 193.023438 249.175781 C 193.34375 245.597656 193.703125 241.949219 194.054688 238.214844 C 194.4375 234.550781 194.777344 230.691406 195.488281 227.25 C 196.863281 219.535156 198.296875 211.570312 199.777344 203.421875 C 201.191406 195.261719 202.566406 187.335938 203.902344 179.640625 C 204.546875 175.800781 205.199219 172.039062 205.824219 168.34375 C 206.308594 164.617188 206.796875 160.972656 207.285156 157.414062 C 209.148438 143.1875 210.738281 130.367188 211.976562 119.585938 C 212.277344 116.875 212.558594 114.320312 212.824219 111.894531 C 212.882812 111.269531 212.96875 110.683594 213.027344 110.089844 L 213.066406 109.652344 L 213.105469 109.347656 L 213.105469 109.125 L 213.144531 108.246094 C 213.195312 107.117188 213.253906 106.003906 213.289062 104.914062 C 213.457031 100.625 213.554688 96.910156 213.613281 93.886719 Z M 226.375 88.671875 C 226.355469 88.710938 226.335938 88.75 226.316406 88.796875 C 226.316406 88.796875 226.179688 89.292969 225.898438 90.308594 C 225.75 90.796875 225.59375 91.417969 225.371094 92.171875 C 225.203125 92.921875 225.027344 93.789062 224.804688 94.785156 C 223.867188 98.742188 222.980469 104.628906 222.027344 112.273438 C 221.566406 116.125 221.042969 120.328125 220.367188 124.988281 C 219.746094 129.714844 219.054688 134.910156 218.3125 140.558594 C 216.664062 151.886719 215.269531 164.832031 212.929688 179.523438 C 210.375 194.167969 208.132812 207.097656 206.195312 218.25 C 205.6875 221.019531 205.257812 223.710938 204.730469 226.253906 C 204.164062 228.789062 203.621094 231.214844 203.09375 233.535156 C 202.058594 238.148438 201.113281 242.339844 200.285156 246.066406 C 199.066406 251.425781 197.78125 256.738281 196.542969 262.082031 C 195.429688 266.839844 193.507812 271.042969 192.855469 275.964844 C 192.757812 276.609375 192.652344 277.320312 192.554688 278.128906 C 192.476562 278.890625 192.386719 279.75 192.289062 280.65625 C 192.105469 282.535156 191.824219 284.515625 191.5 286.808594 C 191.402344 287.695312 190.957031 290.003906 191.0625 289.703125 C 191.0625 289.78125 191.082031 289.925781 191.015625 290.003906 C 190.9375 290.0625 190.808594 290.0625 190.710938 290.082031 C 190.125 290.140625 189.523438 290.21875 188.90625 290.289062 C 188.226562 290.328125 187.53125 290.367188 186.8125 290.425781 C 186.460938 290.453125 186.101562 290.492188 185.738281 290.511719 C 185.328125 290.492188 184.929688 290.472656 184.519531 290.453125 C 183.710938 290.425781 182.863281 290.386719 182.015625 290.347656 C 178.574219 290.023438 173.71875 289.984375 169.859375 290.492188 C 165.734375 290.832031 161.335938 291.320312 156.648438 291.574219 C 151.949219 291.742188 147.542969 291.90625 143.398438 292.0625 C 139.246094 292.082031 135.382812 292.121094 131.785156 292.148438 C 128.199219 292.148438 124.882812 292.121094 121.871094 292.121094 C 120.351562 292.109375 118.917969 292.109375 117.5625 292.082031 C 116.871094 292.082031 116.207031 292.0625 115.5625 292.0625 L 115.074219 292.0625 C 115.007812 292.042969 115.035156 292.042969 115.007812 292.042969 L 114.910156 292.023438 C 114.792969 291.984375 114.648438 292.003906 114.707031 291.847656 L 114.726562 291.664062 C 114.726562 291.59375 114.753906 291.664062 114.707031 291.378906 C 114.726562 291.292969 114.726562 291.234375 114.726562 291.15625 C 114.792969 290.140625 114.726562 288.972656 114.511719 287.617188 C 114.511719 287.617188 107.871094 253.238281 95.304688 188.242188 C 83.011719 123.203125 76.496094 88.816406 76.496094 88.816406 C 76.195312 87.453125 75.824219 86.339844 75.394531 85.433594 C 75.113281 84.808594 74.753906 84.214844 74.390625 83.738281 C 74.566406 83.386719 74.773438 83.007812 74.996094 82.558594 C 76.011719 80.597656 77.519531 77.828125 79.101562 74.269531 C 79.910156 72.507812 80.828125 70.585938 81.792969 68.519531 C 82.765625 66.460938 83.652344 64.210938 84.6875 61.890625 C 86.792969 57.25 88.832031 52.089844 91.179688 46.789062 C 95.714844 36.132812 100.101562 26.566406 103.660156 19.890625 C 105.277344 16.632812 106.777344 14.097656 107.851562 12.285156 C 108.132812 11.980469 108.378906 11.632812 108.601562 11.210938 C 108.601562 11.210938 108.699219 11.007812 108.808594 10.683594 C 109.363281 9.730469 109.695312 9.203125 109.695312 9.203125 C 109.773438 9.039062 109.8125 8.863281 109.871094 8.695312 C 109.976562 8.597656 110.074219 8.472656 110.335938 8.375 C 110.582031 8.257812 110.824219 8.132812 111.070312 7.996094 C 111.332031 7.917969 111.59375 7.828125 111.878906 7.730469 C 112.140625 7.605469 112.503906 7.546875 112.890625 7.488281 C 113.292969 7.429688 113.699219 7.359375 114.101562 7.300781 C 115.035156 7.242188 115.945312 7.125 117.035156 7.136719 C 119.140625 7.078125 121.589844 7.242188 124.296875 7.320312 C 125.59375 7.390625 127.214844 7.390625 128.609375 7.359375 C 130.003906 7.339844 131.433594 7.320312 132.9375 7.28125 C 135.890625 7.261719 138.980469 7.242188 142.199219 7.222656 C 143.796875 7.242188 145.433594 7.203125 147.09375 7.261719 C 148.761719 7.359375 150.4375 7.46875 152.113281 7.566406 C 165.507812 8.695312 178.574219 8.902344 186.832031 9.933594 C 188.429688 10.277344 189.804688 10.820312 190.46875 11.328125 C 190.691406 11.816406 191.160156 12.722656 191.84375 14.097656 C 191.96875 14.339844 192.085938 14.625 192.230469 14.90625 C 192.953125 17.625 194.738281 20.0625 196.152344 22.472656 C 198.015625 25.894531 200.265625 29.960938 202.734375 34.472656 C 203.941406 36.714844 205.257812 39.066406 206.476562 41.53125 C 207.664062 44 208.902344 46.554688 210.152344 49.15625 C 214.871094 60.046875 219.863281 69.648438 222.613281 76.71875 C 223.265625 78.472656 223.847656 80.070312 224.375 81.484375 C 224.804688 82.910156 225.164062 84.117188 225.449219 85.113281 C 225.769531 86.097656 225.9375 86.867188 226.015625 87.394531 C 226.121094 87.917969 226.179688 88.203125 226.179688 88.203125 C 226.21875 88.367188 226.296875 88.523438 226.375 88.671875 " fill-opacity="1" fill-rule="nonzero"/><g clip-path="url(#6655799e56)"><path fill="#000000" d="M 226.316406 88.796875 C 226.335938 88.75 226.355469 88.710938 226.375 88.671875 C 226.296875 88.523438 226.21875 88.367188 226.179688 88.203125 C 226.179688 88.203125 226.121094 87.917969 226.015625 87.394531 C 225.9375 86.867188 225.769531 86.097656 225.449219 85.113281 C 225.164062 84.117188 224.804688 82.910156 224.375 81.484375 C 223.847656 80.070312 223.265625 78.472656 222.613281 76.71875 C 219.863281 69.648438 214.871094 60.046875 210.152344 49.15625 C 208.902344 46.554688 207.664062 44 206.476562 41.53125 C 205.257812 39.066406 203.941406 36.714844 202.734375 34.472656 C 200.265625 29.960938 198.015625 25.894531 196.152344 22.472656 C 194.738281 20.0625 192.953125 17.625 192.230469 14.90625 C 192.085938 14.625 191.96875 14.339844 191.84375 14.097656 C 191.160156 12.722656 190.691406 11.816406 190.46875 11.328125 C 189.804688 10.820312 188.429688 10.277344 186.832031 9.933594 C 178.574219 8.902344 165.507812 8.695312 152.113281 7.566406 C 150.4375 7.46875 148.761719 7.359375 147.09375 7.261719 C 145.433594 7.203125 143.796875 7.242188 142.199219 7.222656 C 138.980469 7.242188 135.890625 7.261719 132.9375 7.28125 C 131.433594 7.320312 130.003906 7.339844 128.609375 7.359375 C 127.214844 7.390625 125.59375 7.390625 124.296875 7.320312 C 121.589844 7.242188 119.140625 7.078125 117.035156 7.136719 C 115.945312 7.125 115.035156 7.242188 114.101562 7.300781 C 113.699219 7.359375 113.292969 7.429688 112.890625 7.488281 C 112.503906 7.546875 112.140625 7.605469 111.878906 7.730469 C 111.59375 7.828125 111.332031 7.917969 111.070312 7.996094 C 110.824219 8.132812 110.582031 8.257812 110.335938 8.375 C 110.074219 8.472656 109.976562 8.597656 109.871094 8.695312 C 109.8125 8.863281 109.773438 9.039062 109.695312 9.203125 C 109.695312 9.203125 109.363281 9.730469 108.808594 10.683594 C 108.699219 11.007812 108.601562 11.210938 108.601562 11.210938 C 108.378906 11.632812 108.132812 11.980469 107.851562 12.285156 C 106.777344 14.097656 105.277344 16.632812 103.660156 19.890625 C 100.101562 26.566406 95.714844 36.132812 91.179688 46.789062 C 88.832031 52.089844 86.792969 57.25 84.6875 61.890625 C 83.652344 64.210938 82.765625 66.460938 81.792969 68.519531 C 80.828125 70.585938 79.910156 72.507812 79.101562 74.269531 C 77.519531 77.828125 76.011719 80.597656 74.996094 82.558594 C 74.773438 83.007812 74.566406 83.386719 74.390625 83.738281 C 74.753906 84.214844 75.113281 84.808594 75.394531 85.433594 C 75.824219 86.339844 76.195312 87.453125 76.496094 88.816406 C 76.496094 88.816406 83.011719 123.203125 95.304688 188.242188 C 107.871094 253.238281 114.511719 287.617188 114.511719 287.617188 C 114.726562 288.972656 114.792969 290.140625 114.726562 291.15625 C 114.726562 291.234375 114.726562 291.292969 114.707031 291.378906 C 114.753906 291.664062 114.726562 291.59375 114.726562 291.664062 L 114.707031 291.847656 C 114.648438 292.003906 114.792969 291.984375 114.910156 292.023438 L 115.007812 292.042969 C 115.035156 292.042969 115.007812 292.042969 115.074219 292.0625 L 115.5625 292.0625 C 116.207031 292.0625 116.871094 292.082031 117.5625 292.082031 C 118.917969 292.109375 120.351562 292.109375 121.871094 292.121094 C 124.882812 292.121094 128.199219 292.148438 131.785156 292.148438 C 135.382812 292.121094 139.246094 292.082031 143.398438 292.0625 C 147.542969 291.90625 151.949219 291.742188 156.648438 291.574219 C 161.335938 291.320312 165.734375 290.832031 169.859375 290.492188 C 173.71875 289.984375 178.574219 290.023438 182.015625 290.347656 C 182.863281 290.386719 183.710938 290.425781 184.519531 290.453125 C 184.929688 290.472656 185.328125 290.492188 185.738281 290.511719 C 186.101562 290.492188 186.460938 290.453125 186.8125 290.425781 C 187.53125 290.367188 188.226562 290.328125 188.90625 290.289062 C 189.523438 290.21875 190.125 290.140625 190.710938 290.082031 C 190.808594 290.0625 190.9375 290.0625 191.015625 290.003906 C 191.082031 289.925781 191.0625 289.78125 191.0625 289.703125 C 190.957031 290.003906 191.402344 287.695312 191.5 286.808594 C 191.824219 284.515625 192.105469 282.535156 192.289062 280.65625 C 192.386719 279.75 192.476562 278.890625 192.554688 278.128906 C 192.652344 277.320312 192.757812 276.609375 192.855469 275.964844 C 193.507812 271.042969 195.429688 266.839844 196.542969 262.082031 C 197.78125 256.738281 199.066406 251.425781 200.285156 246.066406 C 201.113281 242.339844 202.058594 238.148438 203.09375 233.535156 C 203.621094 231.214844 204.164062 228.789062 204.730469 226.253906 C 205.257812 223.710938 205.6875 221.019531 206.195312 218.25 C 208.132812 207.097656 210.375 194.167969 212.929688 179.523438 C 215.269531 164.832031 216.664062 151.886719 218.3125 140.558594 C 219.054688 134.910156 219.746094 129.714844 220.367188 124.988281 C 221.042969 120.328125 221.566406 116.125 222.027344 112.273438 C 222.980469 104.628906 223.867188 98.742188 224.804688 94.785156 C 225.027344 93.789062 225.203125 92.921875 225.371094 92.171875 C 225.59375 91.417969 225.75 90.796875 225.898438 90.308594 C 226.179688 89.292969 226.316406 88.796875 226.316406 88.796875 Z M 234.894531 86.359375 C 235.238281 87.65625 234.933594 89.136719 234.332031 91.402344 C 234.332031 91.402344 234.125 91.964844 233.746094 93.039062 C 233.316406 94.089844 232.878906 95.769531 232.28125 97.914062 C 231.132812 102.222656 229.882812 108.65625 228.585938 116.828125 C 227.164062 125.105469 225.566406 134.71875 223.886719 145.441406 C 223.039062 150.773438 222.230469 156.457031 221.382812 162.328125 C 220.953125 165.261719 220.535156 168.234375 220.105469 171.246094 C 219.882812 172.769531 219.6875 174.289062 219.460938 175.820312 C 219.199219 177.359375 218.9375 178.871094 218.671875 180.433594 C 214.402344 205.117188 211.390625 227.753906 207.988281 243.976562 C 205.570312 255.53125 203.179688 266.761719 200.605469 278.109375 C 200.265625 279.425781 199.984375 281.289062 199.59375 283.308594 C 199.195312 285.355469 198.648438 287.976562 198.082031 290.453125 C 197.917969 291.019531 197.730469 292.472656 197.390625 293.542969 C 197.027344 294.597656 196.433594 295.601562 195.363281 296.109375 C 194.398438 296.613281 193.121094 296.722656 191.804688 296.742188 C 190.996094 296.78125 190.164062 296.820312 189.335938 296.859375 C 185.835938 297.101562 182.277344 296.671875 179.023438 296.351562 L 177.746094 296.234375 L 176.574219 296.214844 C 175.765625 296.214844 174.996094 296.148438 174.128906 296.175781 C 172.324219 296.292969 170.460938 296.421875 168.582031 296.554688 C 164.816406 296.800781 160.957031 297.210938 156.96875 297.386719 C 141.066406 298.078125 126.578125 298.683594 116.058594 299.128906 C 114.421875 299.1875 110.660156 299.980469 109.128906 299.0625 C 107.609375 298.15625 107.832031 296.574219 107.570312 294.976562 C 107.480469 294.488281 107.421875 294.03125 107.34375 293.5625 L 107.21875 292.890625 L 107.160156 292.570312 C 107.140625 292.472656 107.121094 292.414062 107.101562 292.304688 C 106.738281 291.417969 106.476562 290.386719 106.253906 289.175781 C 106.234375 289.089844 106.214844 289.011719 106.195312 288.933594 C 104.976562 284.585938 105.335938 279.640625 104.632812 275.128906 C 103.84375 269.929688 102.734375 264.773438 101.925781 259.578125 C 99.046875 241.492188 94.808594 216.5625 89.601562 189.332031 C 84.382812 162.101562 79.140625 137.386719 75.140625 119.519531 C 73.113281 110.578125 71.4375 103.332031 70.21875 98.363281 C 69.03125 93.359375 68.296875 90.648438 68.296875 90.648438 C 67.246094 85.960938 65.003906 83.027344 67.839844 78.941406 C 68.316406 78.210938 68.933594 77.304688 69.652344 76.210938 C 70.023438 75.664062 70.421875 75.078125 70.851562 74.445312 C 71.234375 73.785156 71.640625 73.070312 72.0625 72.320312 C 75.621094 66.335938 80.457031 57.132812 85.816406 44.507812 C 91.121094 31.722656 95.167969 21.976562 97.878906 15.394531 C 99.046875 12.683594 99.964844 10.558594 100.667969 8.941406 C 100.667969 8.5 100.792969 8.015625 101.074219 7.46875 C 101.074219 7.46875 101.191406 7.222656 101.457031 6.777344 C 101.601562 6.511719 101.777344 6.171875 102.039062 5.734375 C 102.128906 5.527344 102.1875 5.402344 102.1875 5.402344 C 102.410156 4.933594 102.695312 4.613281 103.015625 4.347656 C 103.113281 4.210938 103.179688 4.105469 103.296875 3.96875 C 104.574219 2.484375 106.535156 1.433594 108.398438 0.808594 C 110.542969 0.203125 112.851562 -0.078125 115.113281 0.0195312 C 117.445312 0.0195312 119.890625 0.261719 122.476562 0.527344 C 123.773438 0.671875 125.109375 0.789062 126.425781 0.867188 C 127.632812 0.957031 129.191406 0.996094 130.753906 1.035156 C 133.863281 1.113281 137.226562 1.199219 140.84375 1.277344 C 142.648438 1.316406 144.507812 1.335938 146.429688 1.375 C 148.351562 1.5 150.339844 1.617188 152.375 1.753906 C 156.480469 2.007812 160.332031 2.222656 163.929688 2.445312 C 167.527344 2.652344 170.765625 2.542969 173.816406 2.613281 C 176.769531 2.582031 179.890625 2.730469 182.542969 2.769531 C 185.230469 2.875 187.582031 2.710938 190.164062 3.382812 C 191.382812 3.617188 192.632812 4.066406 193.832031 4.632812 C 197.105469 6.328125 198.199219 8.414062 199.652344 11.671875 C 200.460938 13.757812 200.871094 14.828125 200.871094 14.828125 C 201.007812 15.277344 201.054688 15.695312 201.054688 16.085938 C 201.300781 16.691406 201.535156 17.277344 201.835938 17.929688 C 203.316406 21.164062 205.054688 25.171875 207.421875 29.980469 C 208.59375 32.367188 209.867188 34.960938 211.242188 37.730469 C 212.558594 40.566406 213.984375 43.597656 215.476562 46.816406 C 217.054688 50.074219 218.183594 52.898438 219.617188 55.660156 C 220.953125 58.371094 222.289062 60.914062 223.546875 63.246094 C 226.035156 67.972656 228.179688 71.960938 229.777344 75.3125 C 231.863281 79.585938 233.09375 82.683594 233.726562 84.378906 C 234.273438 84.886719 234.691406 85.53125 234.894531 86.359375 " fill-opacity="1" fill-rule="nonzero"/></g><path fill="#000000" d="M 213.046875 84.378906 C 213.515625 84.4375 213.691406 87.84375 213.613281 93.886719 C 213.554688 96.910156 213.457031 100.625 213.289062 104.914062 C 213.253906 106.003906 213.195312 107.117188 213.144531 108.246094 L 213.105469 109.125 L 213.105469 109.347656 L 213.066406 109.652344 L 213.027344 110.089844 C 212.96875 110.683594 212.882812 111.269531 212.824219 111.894531 C 212.558594 114.320312 212.277344 116.875 211.976562 119.585938 C 210.738281 130.367188 209.148438 143.1875 207.285156 157.414062 C 206.796875 160.972656 206.308594 164.617188 205.824219 168.34375 C 205.199219 172.039062 204.546875 175.800781 203.902344 179.640625 C 202.566406 187.335938 201.191406 195.261719 199.777344 203.421875 C 198.296875 211.570312 196.863281 219.535156 195.488281 227.25 C 194.777344 230.691406 194.4375 234.550781 194.054688 238.214844 C 193.703125 241.949219 193.34375 245.597656 193.023438 249.175781 C 192.269531 256.339844 191.421875 263.195312 189.84375 269.648438 C 188.90625 272.867188 188.089844 275.984375 185.933594 279.222656 L 185.230469 280.070312 L 184.890625 280.488281 L 184.804688 280.617188 L 184.804688 280.636719 L 184.765625 280.65625 L 184.746094 280.695312 L 184.441406 281.015625 L 184.140625 281.242188 C 183.3125 281.804688 182.464844 282.390625 181.691406 282.632812 C 180.902344 282.984375 180.113281 283.289062 179.382812 283.445312 C 178.632812 283.628906 177.890625 283.851562 177.179688 283.949219 C 171.476562 284.925781 166.542969 284.835938 162.183594 284.816406 C 157.855469 284.742188 154.160156 284.566406 151.140625 284.398438 C 148.125 284.234375 145.804688 284.117188 144.226562 284.039062 C 142.648438 283.949219 141.761719 283.890625 141.742188 283.648438 C 141.742188 283.425781 142.5 283.042969 144.0625 282.683594 C 145.699219 282.292969 148.046875 282.011719 151.082031 281.746094 C 154.132812 281.484375 157.835938 281.296875 162.085938 280.996094 C 166.320312 280.675781 171.230469 280.390625 176.164062 279.242188 C 176.800781 279.113281 177.363281 278.890625 177.949219 278.714844 C 178.554688 278.550781 179.0625 278.304688 179.566406 278.0625 C 180.152344 277.847656 180.417969 277.515625 180.796875 277.28125 L 180.84375 277.253906 L 181.148438 276.851562 L 181.789062 275.964844 C 182.785156 274.164062 183.671875 271.265625 184.324219 268.351562 C 185.535156 262.367188 186.207031 255.6875 186.742188 248.609375 C 187.015625 245.03125 187.269531 241.386719 187.550781 237.652344 C 187.882812 233.867188 188.148438 230.054688 188.9375 225.875 C 190.273438 218.21875 191.648438 210.3125 193.0625 202.203125 C 194.515625 194.070312 195.957031 186.136719 197.332031 178.472656 C 198.035156 174.648438 198.726562 170.886719 199.40625 167.203125 C 199.984375 163.507812 200.527344 159.878906 201.074219 156.359375 C 203.277344 142.261719 205.335938 129.558594 207.179688 118.914062 C 207.644531 116.242188 208.113281 113.714844 208.515625 111.308594 C 208.640625 110.703125 208.738281 110.109375 208.835938 109.523438 L 208.921875 109.105469 C 208.921875 109.066406 208.941406 108.941406 208.960938 108.941406 L 208.980469 108.734375 L 209.078125 107.886719 C 209.226562 106.734375 209.34375 105.644531 209.488281 104.570312 C 210.015625 100.300781 210.523438 96.636719 210.960938 93.625 C 211.859375 87.597656 212.578125 84.324219 213.046875 84.378906 " fill-opacity="1" fill-rule="nonzero"/><path fill="#000000" d="M 190.203125 77.304688 C 180.53125 77.265625 170.910156 77.175781 161.296875 78.316406 C 159.113281 78.570312 158.160156 76.777344 158.449219 75.058594 C 158.363281 74.816406 158.285156 74.554688 158.265625 74.269531 C 157.269531 64.636719 155.953125 55.082031 156.179688 45.421875 C 152.222656 44.769531 148.144531 44.875 144.140625 45.277344 C 144.34375 55.570312 145.484375 65.894531 143.308594 76.085938 C 143.230469 76.453125 143.09375 76.757812 142.929688 77.019531 C 142.746094 78.355469 141.78125 79.585938 140.054688 79.664062 C 130.507812 80.03125 121.179688 81.007812 111.710938 80.050781 C 111.691406 84.945312 111.691406 89.859375 111.75 94.765625 C 111.75 94.957031 129.308594 93.449219 130.910156 93.300781 C 136.621094 92.84375 142.179688 90.269531 143.09375 98.195312 C 143.601562 102.769531 143.007812 107.507812 143.113281 112.117188 C 143.230469 116.59375 143.679688 121.058594 143.835938 125.53125 C 144.449219 143.792969 145.015625 162.101562 145.355469 180.375 C 145.542969 190.707031 145.699219 201.050781 145.765625 211.40625 C 145.785156 212.359375 157.457031 212.605469 158.734375 210.253906 C 160.75 206.589844 158.714844 199.003906 158.566406 195.066406 C 158.324219 188.183594 158.585938 181.308594 158.792969 174.40625 C 159.015625 166.800781 159.261719 159.179688 159.414062 151.542969 C 159.84375 132.835938 159.015625 114.183594 157.925781 95.503906 C 157.554688 89.136719 165.140625 90.027344 169.972656 89.820312 C 176.878906 89.539062 183.730469 90.289062 190.632812 89.988281 C 189.785156 85.84375 190.046875 81.554688 190.203125 77.304688 Z M 197.273438 91.324219 C 197.75 92.714844 197.253906 93.789062 196.335938 94.414062 C 195.847656 95.164062 195.089844 95.730469 193.988281 95.855469 C 184.011719 96.839844 173.921875 94.65625 164.046875 96.519531 C 165.121094 114.828125 166.074219 133.214844 165.488281 151.542969 C 164.855469 171.1875 163.804688 190.511719 165.34375 210.15625 C 165.402344 211.042969 165.121094 211.726562 164.679688 212.214844 C 163.707031 220.589844 148.613281 217.3125 143.09375 217.234375 C 141.476562 217.195312 140.523438 216.144531 140.238281 214.90625 C 139.917969 214.457031 139.710938 213.871094 139.710938 213.171875 C 139.527344 175.078125 137.949219 137.105469 136.816406 98.984375 C 127.429688 99.414062 118.148438 100.992188 108.738281 100.867188 C 107.0625 100.847656 105.746094 99.492188 105.707031 97.835938 C 105.539062 91.097656 105.648438 84.363281 105.667969 77.644531 C 105.667969 77.507812 105.6875 77.398438 105.707031 77.285156 C 105.558594 75.460938 107.101562 73.316406 109.507812 73.707031 C 118.878906 75.195312 128.199219 74.203125 137.585938 73.714844 C 139.507812 63.789062 138.132812 53.613281 138.035156 43.578125 C 138.035156 43.191406 138.09375 42.828125 138.210938 42.507812 C 138.375 41.132812 139.332031 39.757812 141.066406 39.535156 C 146.828125 38.800781 152.640625 38.617188 158.382812 39.652344 C 159.015625 39.757812 159.472656 40.011719 159.84375 40.363281 C 161.199219 40.519531 162.390625 41.472656 162.3125 43.25 C 161.84375 52.898438 163.0625 62.386719 164.085938 71.960938 C 173.472656 71.074219 182.882812 71.210938 192.308594 71.230469 C 192.613281 71.230469 192.875 71.269531 193.140625 71.355469 C 194.71875 71.25 196.375 72.222656 196.355469 74.269531 C 196.296875 79.933594 195.324219 85.882812 197.273438 91.324219 " fill-opacity="1" fill-rule="nonzero"/><path fill="#000000" d="M 114.628906 214.992188 C 118.246094 235.398438 119.316406 248.082031 118.46875 248.25 C 117.472656 248.441406 114.6875 235.964844 109.917969 216.054688 C 107.382812 206.09375 104.390625 194.207031 101.339844 180.957031 C 98.441406 167.667969 95.246094 152.957031 92.195312 137.582031 C 91.421875 133.742188 90.671875 129.941406 89.933594 126.195312 C 89.140625 122.472656 88.371094 118.796875 87.601562 115.1875 C 86.851562 111.589844 86.121094 108.03125 85.398438 104.570312 C 85.046875 102.835938 84.667969 101.148438 84.238281 99.433594 C 83.878906 97.738281 83.390625 96.050781 83.1875 93.992188 C 82.992188 91.964844 83.148438 89.742188 83.632812 87.976562 C 83.820312 87.03125 84.101562 86.222656 84.367188 85.375 C 84.5 84.925781 84.589844 84.605469 84.785156 84.078125 L 85.214844 82.949219 C 86.34375 79.933594 87.457031 77 88.527344 74.164062 C 89.660156 71.335938 90.9375 68.625 92.066406 65.992188 C 92.660156 64.695312 93.226562 63.398438 93.792969 62.152344 C 94.398438 60.953125 94.980469 59.78125 95.566406 58.621094 C 97.917969 54.03125 100.042969 49.90625 101.925781 46.269531 C 103.746094 42.625 105.277344 39.496094 106.613281 36.941406 C 109.265625 31.839844 110.941406 29.09375 111.390625 29.257812 C 111.839844 29.414062 110.992188 32.515625 109.058594 37.972656 C 108.09375 40.683594 106.894531 44.039062 105.386719 47.871094 C 103.785156 51.632812 101.960938 55.894531 99.964844 60.632812 C 99.457031 61.820312 98.929688 63.019531 98.386719 64.277344 C 97.917969 65.488281 97.429688 66.746094 96.921875 68.03125 C 95.957031 70.625 94.867188 73.238281 93.851562 76.066406 C 92.894531 78.941406 91.890625 81.894531 90.878906 84.945312 L 90.46875 86.097656 L 90.1875 87.128906 C 89.992188 87.863281 89.765625 88.613281 89.640625 89.292969 C 89.296875 90.738281 89.296875 91.925781 89.445312 93.28125 C 89.582031 94.597656 90.070312 96.234375 90.488281 97.914062 C 90.917969 99.601562 91.367188 101.335938 91.746094 103.070312 C 92.515625 106.570312 93.324219 110.140625 94.132812 113.753906 C 94.941406 117.390625 95.753906 121.078125 96.582031 124.820312 C 97.332031 128.585938 98.101562 132.386719 98.890625 136.226562 C 101.925781 151.601562 104.839844 166.257812 107.460938 179.5625 C 110.171875 192.890625 112.707031 204.894531 114.628906 214.992188 " fill-opacity="1" fill-rule="nonzero"/></svg>