<svg xmlns="http://www.w3.org/2000/svg" xmlns:xlink="http://www.w3.org/1999/xlink" width="400" zoomAndPan="magnify" viewBox="0 0 300 299.999988" height="400" preserveAspectRatio="xMidYMid meet" version="1.0"><defs><clipPath id="0f703834cc"><path d="M 0.0234375 78.5625 L 299.984375 78.5625 L 299.984375 221.78125 L 0.0234375 221.78125 Z M 0.0234375 78.5625 " clip-rule="nonzero"/></clipPath></defs><g clip-path="url(#0f703834cc)"><path fill="#610000" d="M 6.074219 197.597656 C 8.070312 206.074219 10.546875 213.144531 13.425781 218.609375 C 14.863281 221.394531 18.375 221.78125 21.960938 221.78125 C 21.960938 221.78125 21.992188 221.78125 21.996094 221.78125 C 25.203125 221.78125 28.78125 221.503906 32.628906 220.96875 C 36.441406 220.433594 40.140625 219.703125 43.617188 218.792969 C 47.816406 217.695312 50.375 216.496094 51.910156 214.898438 C 51.933594 214.875 51.953125 214.855469 51.972656 214.832031 C 51.980469 214.832031 51.980469 214.824219 51.984375 214.820312 C 52.003906 214.800781 52.027344 214.78125 52.050781 214.761719 C 52.070312 214.738281 52.089844 214.71875 52.109375 214.695312 C 52.113281 214.691406 52.117188 214.6875 52.121094 214.683594 C 52.140625 214.664062 52.164062 214.644531 52.183594 214.621094 C 52.203125 214.601562 52.226562 214.578125 52.246094 214.558594 C 52.25 214.554688 52.253906 214.550781 52.257812 214.546875 C 52.277344 214.527344 52.300781 214.507812 52.320312 214.488281 C 52.339844 214.464844 52.363281 214.441406 52.382812 214.421875 C 52.386719 214.417969 52.390625 214.414062 52.394531 214.410156 C 52.414062 214.390625 52.4375 214.371094 52.457031 214.351562 C 52.480469 214.328125 52.5 214.308594 52.519531 214.285156 C 52.523438 214.28125 52.527344 214.277344 52.53125 214.273438 C 52.550781 214.253906 52.574219 214.234375 52.59375 214.214844 C 52.617188 214.191406 52.632812 214.171875 52.65625 214.148438 C 52.660156 214.144531 52.664062 214.140625 52.667969 214.136719 C 52.6875 214.117188 52.710938 214.097656 52.730469 214.074219 C 52.753906 214.054688 52.769531 214.03125 52.792969 214.011719 C 52.796875 214.007812 52.796875 214.003906 52.804688 214 C 52.824219 213.980469 52.847656 213.960938 52.867188 213.9375 C 52.886719 213.917969 52.910156 213.894531 52.929688 213.875 C 52.933594 213.871094 52.9375 213.867188 52.9375 213.863281 C 52.960938 213.84375 52.984375 213.820312 53.003906 213.804688 C 53.023438 213.777344 53.046875 213.757812 53.066406 213.738281 C 53.070312 213.734375 53.074219 213.730469 53.078125 213.722656 C 53.097656 213.707031 53.121094 213.6875 53.140625 213.667969 C 53.160156 213.644531 53.183594 213.625 53.203125 213.597656 C 53.207031 213.597656 53.210938 213.59375 53.214844 213.589844 C 53.230469 213.570312 53.257812 213.550781 53.277344 213.527344 C 53.296875 213.507812 53.316406 213.484375 53.339844 213.464844 C 53.34375 213.460938 53.347656 213.457031 53.351562 213.453125 C 53.367188 213.429688 53.394531 213.414062 53.414062 213.390625 C 53.4375 213.371094 53.453125 213.347656 53.476562 213.328125 C 53.480469 213.324219 53.480469 213.316406 53.488281 213.316406 C 53.507812 213.296875 53.53125 213.273438 53.546875 213.253906 C 53.570312 213.230469 53.589844 213.210938 53.613281 213.1875 C 53.617188 213.1875 53.617188 213.183594 53.621094 213.175781 C 53.644531 213.160156 53.667969 213.136719 53.6875 213.117188 C 53.707031 213.09375 53.726562 213.074219 53.75 213.050781 C 53.753906 213.050781 53.757812 213.046875 53.757812 213.039062 C 53.78125 213.019531 53.804688 213.003906 53.824219 212.980469 C 53.84375 212.960938 53.867188 212.9375 53.886719 212.914062 C 53.890625 212.910156 53.894531 212.910156 53.894531 212.90625 C 53.914062 212.882812 53.9375 212.867188 53.960938 212.84375 C 53.980469 212.824219 54 212.800781 54.019531 212.78125 C 54.027344 212.777344 54.03125 212.769531 54.035156 212.769531 C 54.050781 212.746094 54.074219 212.726562 54.097656 212.707031 C 54.117188 212.683594 54.136719 212.664062 54.160156 212.640625 C 54.160156 212.640625 54.164062 212.632812 54.171875 212.628906 C 54.1875 212.613281 54.214844 212.589844 54.230469 212.570312 C 54.253906 212.546875 54.273438 212.527344 54.296875 212.503906 C 54.296875 212.5 54.300781 212.5 54.304688 212.492188 C 54.324219 212.472656 54.351562 212.453125 54.367188 212.433594 C 54.390625 212.410156 54.410156 212.390625 54.433594 212.367188 C 54.4375 212.363281 54.4375 212.359375 54.441406 212.355469 C 54.464844 212.335938 54.488281 212.320312 54.503906 212.296875 C 54.527344 212.277344 54.546875 212.253906 54.570312 212.230469 C 54.574219 212.226562 54.574219 212.222656 54.578125 212.21875 C 54.597656 212.199219 54.621094 212.179688 54.644531 212.160156 C 54.664062 212.136719 54.683594 212.117188 54.703125 212.09375 C 56.601562 210.027344 58.503906 207.425781 60.359375 204.367188 C 60.839844 204.875 61.339844 205.410156 61.882812 205.976562 C 64.53125 208.765625 66.734375 210.691406 68.617188 211.863281 C 70.125 212.902344 72.246094 213.386719 75.277344 213.386719 C 76.023438 213.386719 76.839844 213.359375 77.707031 213.300781 C 81.285156 213.0625 85.058594 212.582031 88.929688 211.867188 C 92.839844 211.144531 96.449219 210.222656 99.648438 209.125 C 101.976562 208.324219 104.246094 207.371094 105.703125 205.894531 C 105.75 205.847656 105.796875 205.804688 105.839844 205.757812 C 105.886719 205.710938 105.933594 205.664062 105.980469 205.621094 C 106.023438 205.574219 106.070312 205.527344 106.117188 205.480469 C 106.160156 205.4375 106.203125 205.390625 106.253906 205.34375 C 106.300781 205.300781 106.34375 205.253906 106.386719 205.210938 C 106.433594 205.164062 106.480469 205.117188 106.523438 205.074219 C 106.570312 205.027344 106.617188 204.980469 106.660156 204.933594 C 106.707031 204.890625 106.753906 204.84375 106.796875 204.796875 C 106.84375 204.753906 106.886719 204.707031 106.9375 204.660156 C 106.980469 204.617188 107.027344 204.570312 107.070312 204.527344 C 107.117188 204.480469 107.160156 204.433594 107.207031 204.386719 C 107.253906 204.34375 107.296875 204.296875 107.34375 204.25 C 107.390625 204.203125 107.4375 204.160156 107.480469 204.113281 C 107.527344 204.070312 107.570312 204.019531 107.617188 203.976562 C 107.664062 203.933594 107.710938 203.886719 107.753906 203.839844 C 107.796875 203.796875 107.84375 203.75 107.890625 203.703125 C 107.9375 203.65625 107.980469 203.613281 108.027344 203.566406 C 108.074219 203.519531 108.117188 203.472656 108.164062 203.429688 C 108.210938 203.386719 108.253906 203.335938 108.300781 203.289062 C 108.988281 202.632812 109.511719 201.871094 109.800781 200.964844 C 109.820312 200.910156 109.835938 200.859375 109.851562 200.804688 C 111.496094 194.765625 112.824219 187.308594 113.90625 178.015625 C 114.960938 168.933594 115.746094 159.996094 116.234375 151.445312 C 116.242188 151.332031 116.246094 151.222656 116.253906 151.109375 C 116.5625 155.449219 116.929688 159.859375 117.359375 164.3125 C 118.230469 173.324219 119.320312 181.625 120.597656 188.980469 C 122.316406 198.894531 124.023438 202.53125 127.367188 203.402344 C 128.6875 203.738281 130.199219 203.902344 131.992188 203.902344 C 135.226562 203.902344 139.28125 203.371094 144.398438 202.269531 C 152.691406 200.492188 156.289062 198.765625 158.039062 196.859375 C 158.082031 196.8125 158.132812 196.765625 158.175781 196.71875 C 158.21875 196.675781 158.273438 196.628906 158.3125 196.582031 C 158.355469 196.535156 158.40625 196.492188 158.449219 196.445312 C 158.496094 196.398438 158.542969 196.351562 158.585938 196.3125 C 158.632812 196.265625 158.679688 196.21875 158.722656 196.171875 C 158.765625 196.128906 158.816406 196.082031 158.859375 196.035156 C 158.902344 195.988281 158.953125 195.945312 158.996094 195.898438 C 159.039062 195.851562 159.089844 195.804688 159.132812 195.761719 C 159.175781 195.714844 159.226562 195.667969 159.269531 195.625 C 159.3125 195.582031 159.363281 195.535156 159.40625 195.488281 C 159.449219 195.441406 159.5 195.398438 159.542969 195.351562 C 159.585938 195.304688 159.636719 195.257812 159.675781 195.214844 C 159.722656 195.167969 159.773438 195.121094 159.8125 195.074219 C 159.859375 195.03125 159.910156 194.984375 159.953125 194.941406 C 159.996094 194.894531 160.046875 194.851562 160.089844 194.804688 C 160.132812 194.757812 160.183594 194.710938 160.226562 194.667969 C 160.269531 194.621094 160.320312 194.574219 160.359375 194.527344 C 160.40625 194.484375 160.453125 194.4375 160.496094 194.390625 C 160.542969 194.34375 160.589844 194.300781 160.632812 194.257812 C 161.101562 193.773438 161.449219 193.28125 161.71875 192.773438 C 162.605469 191.292969 163.554688 188.472656 164.527344 179.371094 C 165.019531 174.757812 165.429688 169.667969 165.75 164.191406 C 165.972656 169.875 166.277344 175.058594 166.679688 179.648438 C 167.417969 188.222656 168.25 191.148438 169.390625 192.761719 C 171.039062 195.453125 174.523438 195.8125 177.421875 195.8125 C 179.367188 195.8125 181.726562 195.625 184.632812 195.242188 C 192.199219 194.246094 197.523438 192.71875 200.960938 190.542969 C 201.265625 190.34375 201.546875 190.105469 201.816406 189.835938 C 201.863281 189.792969 201.910156 189.746094 201.953125 189.699219 C 202 189.65625 202.042969 189.609375 202.089844 189.5625 C 202.136719 189.519531 202.179688 189.472656 202.226562 189.425781 C 202.269531 189.382812 202.316406 189.335938 202.363281 189.289062 C 202.410156 189.246094 202.453125 189.199219 202.5 189.148438 C 202.546875 189.109375 202.589844 189.0625 202.636719 189.015625 C 202.683594 188.96875 202.726562 188.925781 202.769531 188.878906 C 202.820312 188.835938 202.863281 188.785156 202.90625 188.742188 C 202.953125 188.699219 203 188.652344 203.046875 188.601562 C 203.089844 188.558594 203.136719 188.515625 203.183594 188.464844 C 203.226562 188.421875 203.273438 188.378906 203.320312 188.332031 C 203.367188 188.285156 203.40625 188.238281 203.453125 188.195312 C 203.503906 188.152344 203.546875 188.101562 203.589844 188.054688 C 203.636719 188.011719 203.683594 187.96875 203.726562 187.917969 C 203.773438 187.875 203.820312 187.828125 203.867188 187.78125 C 203.910156 187.738281 203.957031 187.691406 204.003906 187.648438 C 204.046875 187.601562 204.089844 187.554688 204.136719 187.507812 C 204.183594 187.464844 204.226562 187.417969 204.273438 187.371094 C 204.320312 187.328125 204.363281 187.28125 204.410156 187.234375 C 206.113281 185.625 207.101562 182.546875 207.910156 176.554688 C 208.113281 175.050781 208.3125 173.476562 208.503906 171.835938 C 209.554688 172.859375 210.640625 173.910156 211.773438 174.980469 C 214.417969 177.480469 217.035156 179.808594 219.554688 181.894531 C 222.566406 184.390625 224.769531 185.734375 226.621094 186.226562 C 227.480469 186.46875 228.515625 186.582031 229.878906 186.582031 C 230.828125 186.582031 231.929688 186.527344 233.238281 186.410156 C 235.933594 186.179688 238.789062 185.753906 241.726562 185.15625 C 244.699219 184.550781 247.464844 183.792969 249.953125 182.902344 C 252.164062 182.113281 253.792969 181.203125 254.9375 180.113281 C 254.984375 180.066406 255.027344 180.019531 255.074219 179.972656 C 255.121094 179.929688 255.160156 179.882812 255.210938 179.839844 C 255.257812 179.792969 255.296875 179.746094 255.34375 179.699219 C 255.394531 179.65625 255.4375 179.609375 255.480469 179.5625 C 255.53125 179.519531 255.570312 179.472656 255.617188 179.429688 C 255.667969 179.382812 255.710938 179.335938 255.757812 179.289062 C 255.804688 179.246094 255.84375 179.199219 255.894531 179.152344 C 255.941406 179.109375 255.980469 179.0625 256.027344 179.015625 C 256.078125 178.972656 256.117188 178.925781 256.164062 178.878906 C 256.214844 178.835938 256.253906 178.785156 256.300781 178.746094 C 256.351562 178.699219 256.394531 178.648438 256.4375 178.605469 C 256.488281 178.5625 256.527344 178.515625 256.574219 178.46875 C 256.625 178.421875 256.664062 178.378906 256.710938 178.332031 C 256.761719 178.285156 256.800781 178.238281 256.847656 178.195312 C 256.894531 178.152344 256.9375 178.101562 256.984375 178.054688 C 257.03125 178.015625 257.074219 177.964844 257.121094 177.917969 C 257.171875 177.875 257.210938 177.832031 257.257812 177.785156 C 257.308594 177.738281 257.347656 177.691406 257.394531 177.648438 C 257.445312 177.601562 257.484375 177.554688 257.53125 177.507812 C 258.21875 176.886719 258.738281 176.203125 259.105469 175.445312 C 259.152344 175.347656 259.195312 175.25 259.234375 175.152344 C 259.515625 174.429688 260.171875 172.734375 260.90625 162.441406 C 261.402344 155.488281 261.679688 147.789062 261.746094 139.554688 C 261.75 138.753906 261.742188 137.9375 261.746094 137.128906 C 261.78125 137.375 261.820312 137.625 261.863281 137.867188 C 262.847656 143.808594 264.03125 147.460938 267.121094 148.523438 C 267.515625 148.664062 267.929688 148.78125 268.367188 148.882812 C 268.332031 148.917969 268.296875 148.960938 268.257812 148.996094 C 268.210938 149.042969 268.164062 149.089844 268.117188 149.132812 C 268.078125 149.179688 268.03125 149.222656 267.984375 149.269531 C 267.9375 149.316406 267.890625 149.359375 267.847656 149.410156 C 267.800781 149.453125 267.757812 149.496094 267.710938 149.542969 C 267.425781 149.835938 267.136719 150.132812 266.855469 150.449219 C 262.75 155.015625 260.972656 160.078125 261.578125 165.445312 C 261.988281 169.527344 263.675781 172.832031 266.585938 175.277344 C 269.355469 177.605469 272.738281 178.785156 276.636719 178.785156 L 276.957031 178.785156 C 282.296875 178.691406 286.824219 176.820312 290.417969 173.226562 C 290.449219 173.199219 290.472656 173.167969 290.5 173.140625 C 290.519531 173.121094 290.539062 173.105469 290.554688 173.085938 C 290.582031 173.058594 290.609375 173.03125 290.636719 173 C 290.652344 172.984375 290.675781 172.972656 290.691406 172.949219 C 290.71875 172.921875 290.746094 172.894531 290.773438 172.863281 C 290.789062 172.847656 290.8125 172.832031 290.832031 172.816406 C 290.859375 172.785156 290.882812 172.757812 290.910156 172.726562 C 290.929688 172.710938 290.945312 172.695312 290.96875 172.679688 C 290.996094 172.648438 291.019531 172.621094 291.046875 172.59375 C 291.066406 172.574219 291.082031 172.558594 291.101562 172.539062 C 291.132812 172.511719 291.15625 172.480469 291.183594 172.453125 C 291.203125 172.4375 291.21875 172.421875 291.238281 172.402344 C 291.265625 172.375 291.289062 172.34375 291.320312 172.316406 C 291.335938 172.300781 291.359375 172.285156 291.375 172.265625 C 291.402344 172.238281 291.429688 172.210938 291.457031 172.179688 C 291.472656 172.160156 291.496094 172.148438 291.511719 172.128906 C 291.539062 172.101562 291.566406 172.074219 291.59375 172.042969 C 291.609375 172.027344 291.628906 172.011719 291.648438 171.992188 C 291.675781 171.964844 291.703125 171.933594 291.730469 171.90625 C 291.746094 171.890625 291.765625 171.875 291.785156 171.855469 C 291.816406 171.828125 291.839844 171.796875 291.867188 171.769531 C 291.886719 171.75 291.902344 171.738281 291.921875 171.71875 C 291.949219 171.691406 291.972656 171.660156 292.003906 171.632812 C 292.019531 171.613281 292.039062 171.601562 292.058594 171.582031 C 292.085938 171.554688 292.109375 171.527344 292.136719 171.496094 C 292.15625 171.476562 292.175781 171.464844 292.195312 171.445312 C 292.222656 171.414062 292.246094 171.386719 292.273438 171.359375 C 292.292969 171.34375 292.3125 171.328125 292.332031 171.308594 C 292.359375 171.28125 292.386719 171.25 292.414062 171.222656 C 292.429688 171.203125 292.449219 171.191406 292.46875 171.171875 C 292.496094 171.144531 292.523438 171.113281 292.550781 171.085938 C 292.566406 171.066406 292.585938 171.050781 292.605469 171.035156 C 292.632812 171.007812 292.65625 170.976562 292.6875 170.949219 C 292.703125 170.929688 292.722656 170.917969 292.742188 170.894531 C 292.769531 170.867188 292.792969 170.839844 292.820312 170.8125 C 292.839844 170.792969 292.859375 170.78125 292.878906 170.761719 C 292.90625 170.730469 292.929688 170.703125 292.957031 170.671875 C 292.976562 170.65625 292.996094 170.640625 293.015625 170.625 C 293.042969 170.597656 293.066406 170.566406 293.09375 170.539062 C 293.113281 170.519531 293.132812 170.503906 293.148438 170.488281 C 296.554688 167.078125 298.710938 163.242188 299.566406 159.082031 C 300.46875 154.65625 299.734375 150.535156 297.382812 146.828125 C 296.417969 145.308594 295.160156 144.089844 293.648438 143.140625 C 293.683594 143.105469 293.714844 143.074219 293.746094 143.039062 C 293.796875 142.992188 293.839844 142.949219 293.882812 142.902344 C 293.929688 142.855469 293.976562 142.8125 294.023438 142.765625 C 294.066406 142.71875 294.113281 142.671875 294.15625 142.628906 C 294.203125 142.582031 294.25 142.539062 294.292969 142.492188 C 294.339844 142.445312 294.382812 142.402344 294.429688 142.355469 C 294.480469 142.308594 294.523438 142.261719 294.566406 142.21875 C 294.613281 142.171875 294.660156 142.125 294.703125 142.082031 C 294.75 142.035156 294.796875 141.988281 294.839844 141.945312 C 294.886719 141.898438 294.933594 141.855469 294.976562 141.808594 C 295.023438 141.761719 295.066406 141.714844 295.113281 141.671875 C 295.160156 141.625 295.203125 141.578125 295.25 141.535156 C 295.296875 141.488281 295.339844 141.441406 295.386719 141.394531 C 295.433594 141.351562 295.480469 141.304688 295.519531 141.261719 C 295.570312 141.210938 295.617188 141.167969 295.660156 141.125 C 295.707031 141.078125 295.75 141.03125 295.796875 140.984375 C 296.234375 140.5625 296.59375 140.113281 296.875 139.632812 C 297.714844 138.417969 298.554688 136.21875 299.191406 130.183594 C 299.667969 125.625 299.933594 120.535156 299.976562 115.046875 C 300.027344 109.4375 299.832031 103.703125 299.394531 98.003906 C 298.96875 92.378906 298.339844 87.582031 297.53125 83.75 C 297.523438 83.714844 297.519531 83.679688 297.507812 83.648438 C 296.765625 80.53125 293.882812 78.835938 288.929688 78.601562 C 288.324219 78.574219 287.710938 78.558594 287.085938 78.558594 C 284.316406 78.558594 281.351562 78.84375 278.269531 79.402344 C 274.476562 80.089844 270.9375 81.152344 267.753906 82.546875 C 265.777344 83.410156 264.230469 84.410156 263.101562 85.53125 C 263.054688 85.578125 263.011719 85.621094 262.964844 85.667969 C 262.914062 85.714844 262.875 85.757812 262.828125 85.804688 C 262.78125 85.851562 262.734375 85.898438 262.691406 85.941406 C 262.644531 85.984375 262.597656 86.035156 262.554688 86.082031 C 262.507812 86.125 262.460938 86.171875 262.417969 86.214844 C 262.371094 86.261719 262.328125 86.304688 262.28125 86.351562 C 262.234375 86.398438 262.191406 86.445312 262.144531 86.488281 C 262.097656 86.535156 262.054688 86.582031 262.007812 86.628906 C 261.960938 86.671875 261.917969 86.71875 261.875 86.765625 C 261.824219 86.808594 261.78125 86.855469 261.734375 86.898438 C 261.6875 86.945312 261.644531 86.992188 261.597656 87.035156 C 261.550781 87.082031 261.507812 87.128906 261.460938 87.175781 C 261.417969 87.21875 261.371094 87.265625 261.324219 87.3125 C 261.277344 87.359375 261.238281 87.402344 261.191406 87.449219 C 261.140625 87.492188 261.097656 87.542969 261.054688 87.585938 C 261.003906 87.628906 260.960938 87.675781 260.917969 87.722656 C 260.867188 87.765625 260.824219 87.8125 260.777344 87.859375 C 260.734375 87.90625 260.6875 87.949219 260.640625 87.996094 C 260.597656 88.042969 260.554688 88.089844 260.507812 88.132812 C 259.789062 88.820312 259.238281 89.554688 258.84375 90.335938 C 257.773438 87.632812 254.78125 86.167969 249.914062 85.984375 C 249.386719 85.964844 248.855469 85.957031 248.316406 85.957031 C 245.03125 85.957031 241.480469 86.332031 237.761719 87.074219 C 233.441406 87.933594 229.410156 89.207031 225.773438 90.859375 C 223.628906 91.835938 221.953125 92.945312 220.738281 94.179688 C 220.695312 94.226562 220.648438 94.269531 220.601562 94.316406 C 220.554688 94.363281 220.511719 94.410156 220.464844 94.449219 C 220.417969 94.496094 220.375 94.542969 220.328125 94.589844 C 220.28125 94.632812 220.238281 94.679688 220.195312 94.726562 C 220.148438 94.773438 220.097656 94.816406 220.058594 94.863281 C 220.011719 94.910156 219.964844 94.957031 219.917969 95 C 219.875 95.046875 219.828125 95.09375 219.78125 95.136719 C 219.738281 95.179688 219.691406 95.230469 219.644531 95.277344 C 219.597656 95.320312 219.554688 95.363281 219.511719 95.410156 C 219.464844 95.457031 219.417969 95.503906 219.375 95.546875 C 219.328125 95.59375 219.28125 95.640625 219.238281 95.6875 C 219.191406 95.730469 219.144531 95.777344 219.097656 95.820312 C 219.054688 95.867188 219.007812 95.914062 218.960938 95.960938 C 218.917969 96.003906 218.871094 96.050781 218.828125 96.09375 C 218.78125 96.140625 218.734375 96.1875 218.691406 96.234375 C 218.644531 96.277344 218.601562 96.324219 218.554688 96.371094 C 218.507812 96.417969 218.460938 96.460938 218.417969 96.503906 C 218.371094 96.550781 218.324219 96.597656 218.28125 96.644531 C 218.234375 96.6875 218.1875 96.734375 218.144531 96.78125 C 216.550781 98.347656 215.714844 100.121094 215.660156 102.085938 C 215.644531 102.355469 215.632812 102.652344 215.621094 102.960938 C 211.605469 98.769531 208.253906 96.386719 205.175781 95.519531 C 205.148438 95.507812 205.121094 95.503906 205.09375 95.492188 C 203.457031 95.070312 201.472656 94.863281 199.027344 94.863281 C 198.144531 94.863281 197.191406 94.890625 196.1875 94.945312 C 192.675781 95.140625 189.144531 95.589844 185.679688 96.289062 C 182.160156 96.996094 178.980469 97.925781 176.230469 99.054688 C 175.304688 99.433594 173.191406 100.300781 171.632812 101.894531 C 171.585938 101.941406 171.539062 101.984375 171.496094 102.03125 C 171.449219 102.074219 171.402344 102.121094 171.355469 102.167969 C 171.3125 102.214844 171.265625 102.257812 171.222656 102.304688 C 171.175781 102.351562 171.132812 102.398438 171.085938 102.441406 C 171.039062 102.488281 170.996094 102.535156 170.949219 102.582031 C 170.902344 102.625 170.859375 102.667969 170.8125 102.714844 C 170.765625 102.761719 170.71875 102.804688 170.675781 102.851562 C 170.628906 102.898438 170.582031 102.945312 170.539062 102.988281 C 170.492188 103.035156 170.449219 103.082031 170.402344 103.128906 C 170.355469 103.171875 170.3125 103.21875 170.265625 103.265625 C 170.21875 103.3125 170.175781 103.351562 170.128906 103.398438 C 170.082031 103.445312 170.039062 103.492188 169.992188 103.535156 C 169.945312 103.582031 169.898438 103.628906 169.855469 103.675781 C 169.808594 103.71875 169.765625 103.765625 169.71875 103.8125 C 169.671875 103.859375 169.628906 103.902344 169.582031 103.949219 C 169.539062 103.996094 169.492188 104.039062 169.445312 104.082031 C 169.402344 104.128906 169.355469 104.175781 169.308594 104.222656 C 169.261719 104.265625 169.21875 104.3125 169.171875 104.359375 C 169.125 104.40625 169.082031 104.449219 169.039062 104.496094 C 168.074219 105.433594 167.292969 106.636719 167.089844 108.15625 C 166.714844 110.730469 166.40625 113.65625 166.15625 116.878906 C 165.980469 113.835938 165.753906 111.0625 165.472656 108.613281 C 164.847656 103.539062 159.6875 102.183594 155.464844 101.9375 C 154.625 101.890625 153.757812 101.863281 152.890625 101.863281 C 149.28125 101.863281 145.367188 102.285156 141.242188 103.128906 C 136.144531 104.164062 131.363281 105.730469 127.035156 107.789062 C 124.632812 108.929688 122.722656 110.207031 121.300781 111.609375 C 121.253906 111.65625 121.210938 111.703125 121.160156 111.75 C 121.117188 111.792969 121.074219 111.839844 121.027344 111.886719 C 120.980469 111.929688 120.9375 111.976562 120.890625 112.019531 C 120.84375 112.066406 120.796875 112.117188 120.753906 112.15625 C 120.707031 112.203125 120.660156 112.25 120.617188 112.296875 C 120.570312 112.339844 120.527344 112.386719 120.480469 112.433594 C 120.433594 112.480469 120.390625 112.523438 120.34375 112.570312 C 120.296875 112.613281 120.253906 112.664062 120.207031 112.707031 C 120.160156 112.75 120.117188 112.800781 120.070312 112.84375 C 120.023438 112.886719 119.980469 112.933594 119.9375 112.980469 C 119.886719 113.027344 119.84375 113.070312 119.796875 113.117188 C 119.75 113.164062 119.707031 113.210938 119.660156 113.253906 C 119.617188 113.296875 119.570312 113.347656 119.523438 113.394531 C 119.480469 113.4375 119.433594 113.484375 119.386719 113.527344 C 119.339844 113.574219 119.300781 113.617188 119.253906 113.664062 C 119.203125 113.710938 119.160156 113.757812 119.113281 113.800781 C 119.066406 113.847656 119.023438 113.894531 118.980469 113.941406 C 118.933594 113.984375 118.886719 114.03125 118.84375 114.078125 C 118.796875 114.121094 118.75 114.167969 118.703125 114.210938 C 117.550781 115.316406 116.71875 116.507812 116.183594 117.769531 C 115.933594 116.472656 115.636719 115.746094 115.335938 115.203125 C 114.070312 112.65625 111.0625 111.964844 108.261719 111.628906 C 106.539062 111.425781 104.652344 111.320312 102.660156 111.320312 C 101.613281 111.320312 100.515625 111.351562 99.394531 111.40625 C 96.183594 111.566406 92.945312 111.945312 89.765625 112.523438 C 86.207031 113.175781 83.53125 114.09375 81.5625 115.335938 C 81.195312 115.570312 80.835938 115.855469 80.488281 116.222656 C 80.441406 116.265625 80.394531 116.3125 80.351562 116.355469 C 80.304688 116.402344 80.257812 116.449219 80.214844 116.496094 C 80.171875 116.539062 80.121094 116.582031 80.078125 116.632812 C 80.03125 116.679688 79.984375 116.722656 79.9375 116.769531 C 79.894531 116.8125 79.851562 116.859375 79.804688 116.90625 C 79.757812 116.949219 79.714844 116.996094 79.667969 117.042969 C 79.621094 117.085938 79.578125 117.132812 79.53125 117.179688 C 79.488281 117.226562 79.4375 117.269531 79.394531 117.316406 C 79.347656 117.363281 79.300781 117.40625 79.257812 117.453125 C 79.214844 117.496094 79.167969 117.542969 79.121094 117.59375 C 79.078125 117.632812 79.03125 117.679688 78.984375 117.726562 C 78.9375 117.773438 78.894531 117.816406 78.847656 117.863281 C 78.804688 117.910156 78.757812 117.953125 78.710938 118 C 78.664062 118.046875 78.621094 118.089844 78.578125 118.140625 C 78.53125 118.183594 78.484375 118.226562 78.4375 118.277344 C 78.394531 118.320312 78.347656 118.363281 78.300781 118.410156 C 78.257812 118.457031 78.210938 118.503906 78.164062 118.546875 C 78.121094 118.59375 78.074219 118.636719 78.027344 118.6875 C 77.980469 118.730469 77.9375 118.773438 77.894531 118.824219 C 75.996094 120.679688 74.371094 124.738281 72.808594 135.339844 C 72.121094 140.015625 71.484375 144.792969 70.894531 149.636719 C 66.714844 145.207031 64.003906 143.457031 61.410156 143.457031 C 60.964844 143.457031 60.527344 143.511719 60.136719 143.613281 C 58.789062 143.949219 57.238281 144.828125 54.800781 147.308594 C 54.753906 147.355469 54.714844 147.398438 54.664062 147.445312 C 54.617188 147.492188 54.574219 147.535156 54.53125 147.582031 C 54.484375 147.628906 54.4375 147.671875 54.394531 147.71875 C 54.34375 147.765625 54.300781 147.808594 54.253906 147.855469 C 54.210938 147.902344 54.164062 147.945312 54.117188 147.992188 C 54.074219 148.039062 54.03125 148.082031 53.980469 148.132812 C 53.9375 148.175781 53.894531 148.21875 53.847656 148.265625 C 53.796875 148.3125 53.757812 148.359375 53.707031 148.402344 C 53.660156 148.449219 53.617188 148.496094 53.574219 148.539062 C 53.527344 148.585938 53.480469 148.628906 53.4375 148.679688 C 53.390625 148.722656 53.347656 148.765625 53.296875 148.816406 C 53.253906 148.863281 53.210938 148.90625 53.164062 148.949219 C 53.117188 148.996094 53.074219 149.042969 53.023438 149.089844 C 52.980469 149.132812 52.9375 149.179688 52.890625 149.226562 C 52.84375 149.269531 52.796875 149.3125 52.753906 149.363281 C 52.707031 149.410156 52.664062 149.453125 52.617188 149.5 C 52.570312 149.546875 52.527344 149.589844 52.480469 149.636719 C 52.433594 149.679688 52.390625 149.726562 52.339844 149.773438 C 52.296875 149.816406 52.253906 149.863281 52.207031 149.910156 C 50.785156 151.34375 49.050781 153.335938 46.867188 156.101562 C 45.972656 150.4375 45.121094 144.820312 44.324219 139.308594 C 42.710938 128.074219 41.074219 124.152344 37.585938 123.167969 C 37.558594 123.160156 37.535156 123.152344 37.507812 123.148438 C 36.488281 122.878906 35.347656 122.75 34.019531 122.75 C 32.53125 122.75 30.851562 122.914062 28.878906 123.246094 C 25.648438 123.792969 22.347656 124.5625 19.070312 125.527344 C 15.757812 126.507812 12.757812 127.609375 10.148438 128.808594 C 7.886719 129.851562 6.347656 130.8125 5.328125 131.859375 C 5.28125 131.90625 5.238281 131.953125 5.195312 132 C 5.144531 132.042969 5.097656 132.089844 5.054688 132.136719 C 5.011719 132.179688 4.964844 132.226562 4.917969 132.269531 C 4.875 132.316406 4.828125 132.363281 4.78125 132.40625 C 4.738281 132.453125 4.691406 132.5 4.644531 132.546875 C 4.597656 132.589844 4.554688 132.636719 4.511719 132.683594 C 4.460938 132.730469 4.417969 132.773438 4.375 132.820312 C 4.328125 132.863281 4.28125 132.910156 4.238281 132.953125 C 4.191406 133 4.144531 133.046875 4.097656 133.09375 C 4.054688 133.136719 4.007812 133.183594 3.960938 133.230469 C 3.917969 133.277344 3.871094 133.320312 3.828125 133.367188 C 3.78125 133.414062 3.734375 133.460938 3.691406 133.503906 C 3.644531 133.546875 3.597656 133.597656 3.554688 133.640625 C 3.507812 133.683594 3.460938 133.730469 3.417969 133.777344 C 3.371094 133.824219 3.324219 133.867188 3.28125 133.914062 C 3.234375 133.960938 3.1875 134.007812 3.144531 134.050781 C 3.097656 134.097656 3.050781 134.144531 3.007812 134.191406 C 2.960938 134.230469 2.917969 134.28125 2.871094 134.324219 C 2.824219 134.371094 2.78125 134.414062 2.734375 134.460938 C 2.085938 135.09375 1.632812 135.753906 1.34375 136.476562 C 0.710938 137.898438 0.0195312 140.796875 0.0234375 149.691406 C 0.0273438 156.480469 0.535156 164.074219 1.53125 172.253906 C 2.546875 180.570312 4.070312 189.09375 6.074219 197.597656 " fill-opacity="1" fill-rule="nonzero"/></g><path fill="#ff8b00" d="M 103.355469 202.507812 C 103.066406 203.414062 101.410156 204.386719 98.382812 205.425781 C 95.359375 206.460938 91.972656 207.328125 88.222656 208.019531 C 84.472656 208.710938 80.886719 209.171875 77.453125 209.398438 C 74.015625 209.621094 71.792969 209.355469 70.773438 208.597656 C 69.171875 207.625 67.152344 205.847656 64.703125 203.277344 C 62.261719 200.707031 60.375 198.679688 59.058594 197.195312 C 57.65625 199.519531 56.074219 202.121094 54.339844 204.996094 C 52.601562 207.875 50.855469 210.269531 49.101562 212.183594 C 48.132812 213.191406 45.972656 214.136719 42.632812 215.007812 C 39.296875 215.882812 35.785156 216.574219 32.089844 217.09375 C 28.398438 217.609375 25.035156 217.867188 21.992188 217.867188 C 18.945312 217.871094 17.246094 217.515625 16.886719 216.800781 C 14.222656 211.753906 11.839844 205.046875 9.871094 196.695312 C 7.90625 188.347656 6.414062 180.042969 5.40625 171.78125 C 4.398438 163.519531 3.929688 156.15625 3.925781 149.6875 C 3.921875 143.21875 4.300781 139.324219 4.9375 138 C 5.222656 137.195312 6.589844 136.230469 9.042969 135.101562 C 11.496094 133.976562 14.296875 132.949219 17.441406 132.019531 C 20.582031 131.089844 23.703125 130.367188 26.796875 129.839844 C 29.890625 129.316406 32.222656 129.261719 33.792969 129.667969 C 35.292969 130.09375 36.554688 134.402344 37.730469 142.605469 C 38.914062 150.808594 40.265625 159.5625 41.804688 168.867188 C 42.902344 167.492188 45.523438 164.128906 49.738281 158.765625 C 53.949219 153.402344 56.839844 150.519531 58.347656 150.148438 C 59.695312 149.800781 62.289062 151.726562 66.144531 155.933594 C 70 160.144531 72.386719 162.714844 73.28125 163.644531 C 74.246094 153.875 75.386719 144.632812 76.667969 135.90625 C 77.953125 127.183594 79.402344 122.339844 80.914062 121.382812 C 82.433594 120.421875 84.707031 119.667969 87.734375 119.109375 C 90.757812 118.5625 93.800781 118.207031 96.859375 118.050781 C 99.917969 117.898438 102.652344 117.964844 105.070312 118.253906 C 107.488281 118.542969 108.847656 119.046875 109.144531 119.765625 C 109.828125 120.878906 110.1875 124.707031 110.257812 131.238281 C 110.328125 137.769531 110.105469 145.34375 109.613281 153.957031 C 109.117188 162.566406 108.339844 171.351562 107.296875 180.300781 C 106.257812 189.246094 104.953125 196.652344 103.355469 202.507812 " fill-opacity="1" fill-rule="nonzero"/><path fill="#ff8b00" d="M 155.582031 193.59375 C 154.777344 195.28125 150.765625 196.902344 143.582031 198.445312 C 136.394531 199.988281 131.320312 200.371094 128.332031 199.609375 C 126.988281 199.261719 125.6875 195.496094 124.441406 188.308594 C 123.195312 181.121094 122.117188 173 121.242188 163.933594 C 120.367188 154.875 119.75 146.109375 119.398438 137.644531 C 119.042969 129.183594 119.066406 123.492188 119.4375 120.570312 C 119.726562 118.160156 121.90625 115.992188 125.972656 114.0625 C 130.039062 112.128906 134.472656 110.679688 139.285156 109.699219 C 144.101562 108.722656 148.503906 108.347656 152.507812 108.578125 C 156.511719 108.816406 158.632812 109.898438 158.871094 111.832031 C 159.5 117.300781 159.859375 124.386719 159.933594 133.085938 C 160.007812 141.785156 159.867188 150.40625 159.511719 158.945312 C 159.160156 167.484375 158.625 175.066406 157.914062 181.691406 C 157.207031 188.316406 156.429688 192.28125 155.582031 193.59375 " fill-opacity="1" fill-rule="nonzero"/><path fill="#ff8b00" d="M 252.867188 176.46875 C 252.382812 177.472656 250.972656 178.386719 248.644531 179.21875 C 246.316406 180.050781 243.75 180.753906 240.945312 181.324219 C 238.144531 181.894531 235.460938 182.292969 232.902344 182.515625 C 230.339844 182.738281 228.601562 182.71875 227.683594 182.460938 C 226.382812 182.113281 224.503906 180.921875 222.039062 178.878906 C 219.570312 176.835938 217.046875 174.589844 214.453125 172.132812 C 211.859375 169.683594 209.488281 167.351562 207.34375 165.140625 C 205.195312 162.933594 203.835938 161.46875 203.253906 160.757812 C 202.648438 167.734375 201.992188 173.734375 201.3125 178.769531 C 200.632812 183.800781 199.800781 186.636719 198.828125 187.269531 C 195.960938 189.082031 191.058594 190.453125 184.121094 191.367188 C 177.191406 192.277344 173.371094 192.023438 172.652344 190.601562 C 171.816406 189.589844 171.128906 185.828125 170.566406 179.3125 C 170 172.800781 169.621094 165.265625 169.417969 156.710938 C 169.210938 148.152344 169.210938 139.441406 169.410156 130.578125 C 169.609375 121.714844 170.121094 114.417969 170.953125 108.695312 C 171.097656 107.546875 172.4375 106.449219 174.976562 105.414062 C 177.507812 104.375 180.421875 103.523438 183.71875 102.863281 C 187.015625 102.199219 190.332031 101.777344 193.667969 101.589844 C 197.011719 101.40625 199.578125 101.554688 201.386719 102.019531 C 204.039062 102.769531 207.398438 105.398438 211.46875 109.898438 C 215.535156 114.398438 218.5 117.824219 220.351562 120.175781 C 220.15625 116.074219 219.945312 112.441406 219.726562 109.285156 C 219.511719 106.128906 219.453125 103.785156 219.558594 102.257812 C 219.578125 100.394531 221.28125 98.695312 224.652344 97.160156 C 228.03125 95.628906 231.738281 94.453125 235.792969 93.648438 C 239.84375 92.839844 243.589844 92.5 247.039062 92.632812 C 250.484375 92.761719 252.339844 93.523438 252.605469 94.910156 C 253.460938 100.449219 254.152344 107.59375 254.578125 116.347656 C 254.996094 125.097656 255.171875 133.738281 255.109375 142.265625 C 255.046875 150.796875 254.753906 158.339844 254.285156 164.902344 C 253.8125 171.464844 253.3125 175.320312 252.867188 176.46875 " fill-opacity="1" fill-rule="nonzero"/><path fill="#ff8b00" d="M 276.886719 174.871094 C 273.804688 174.921875 271.210938 174.058594 269.089844 172.277344 C 266.96875 170.5 265.765625 168.089844 265.460938 165.054688 C 264.980469 160.789062 266.40625 156.789062 269.753906 153.066406 C 273.097656 149.34375 276.957031 147.476562 281.359375 147.460938 C 286.226562 147.433594 289.566406 148.839844 291.359375 151.671875 C 293.15625 154.5 293.707031 157.617188 293.011719 161.035156 C 292.3125 164.449219 290.527344 167.59375 287.664062 170.457031 C 284.796875 173.324219 281.203125 174.796875 276.886719 174.871094 Z M 290.84375 140.257812 C 290.136719 141.75 286.820312 143.09375 280.90625 144.300781 C 274.988281 145.507812 270.828125 145.691406 268.429688 144.835938 C 267.382812 144.476562 266.496094 141.941406 265.710938 137.226562 C 264.925781 132.507812 264.269531 127.210938 263.703125 121.324219 C 263.136719 115.445312 262.695312 109.75 262.375 104.253906 C 262.054688 98.753906 261.921875 95.046875 262.039062 93.136719 C 262.136719 91.578125 263.652344 90.152344 266.582031 88.871094 C 269.511719 87.585938 272.726562 86.628906 276.234375 85.988281 C 279.746094 85.351562 283.003906 85.109375 286.019531 85.25 C 289.035156 85.390625 290.691406 86.074219 290.984375 87.296875 C 291.734375 90.832031 292.347656 95.414062 292.773438 101.042969 C 293.203125 106.671875 293.394531 112.242188 293.34375 117.753906 C 293.300781 123.265625 293.03125 128.183594 292.578125 132.511719 C 292.121094 136.839844 291.527344 139.421875 290.84375 140.257812 " fill-opacity="1" fill-rule="nonzero"/><path fill="#ffffff" d="M 25.863281 212.78125 C 22.746094 212.78125 21.941406 212.382812 21.792969 212.289062 C 19.117188 207.191406 16.804688 200.546875 14.914062 192.515625 C 12.953125 184.191406 11.460938 175.851562 10.46875 167.722656 C 9.496094 159.746094 9 152.359375 8.996094 145.773438 C 8.996094 137.375 9.621094 135.160156 9.894531 134.597656 C 9.914062 134.558594 9.929688 134.519531 9.945312 134.480469 C 9.953125 134.449219 10.265625 133.710938 13.433594 132.257812 C 15.824219 131.160156 18.59375 130.144531 21.671875 129.234375 C 24.757812 128.320312 27.863281 127.601562 30.894531 127.085938 C 32.558594 126.804688 34.003906 126.664062 35.191406 126.664062 C 36.066406 126.664062 36.8125 126.742188 37.402344 126.894531 C 37.605469 127.011719 38.945312 128.203125 40.476562 138.863281 C 41.714844 147.4375 43.082031 156.28125 44.554688 165.148438 C 44.625 165.601562 44.964844 165.972656 45.410156 166.089844 C 45.511719 166.117188 45.609375 166.128906 45.707031 166.128906 C 46.054688 166.128906 46.394531 165.96875 46.621094 165.683594 C 47.328125 164.800781 48.664062 163.101562 50.640625 160.574219 L 54.558594 155.578125 C 60.195312 148.402344 62.082031 147.488281 62.527344 147.375 C 62.53125 147.375 62.535156 147.375 62.539062 147.375 C 62.980469 147.375 64.582031 147.796875 69.183594 152.816406 C 72.835938 156.804688 75.378906 159.550781 76.34375 160.546875 C 76.566406 160.78125 76.871094 160.90625 77.183594 160.90625 C 77.3125 160.90625 77.441406 160.882812 77.566406 160.839844 C 77.996094 160.6875 78.300781 160.304688 78.347656 159.847656 C 79.277344 150.414062 80.414062 141.101562 81.726562 132.167969 C 83.484375 120.25 85.128906 118.660156 85.445312 118.460938 C 86.824219 117.589844 88.980469 116.878906 91.84375 116.355469 C 94.8125 115.8125 97.828125 115.460938 100.820312 115.3125 C 101.859375 115.261719 102.871094 115.234375 103.828125 115.234375 C 105.625 115.234375 107.308594 115.324219 108.835938 115.507812 C 111.539062 115.832031 111.976562 116.332031 111.996094 116.355469 C 112.015625 116.410156 112.019531 116.414062 112.050781 116.464844 C 112.300781 116.875 112.894531 118.761719 112.988281 127.339844 C 113.058594 133.78125 112.847656 141.1875 112.34375 149.976562 C 111.859375 158.429688 111.082031 167.269531 110.039062 176.253906 C 109 185.164062 107.6875 192.578125 106.128906 198.289062 C 106.117188 198.289062 105.703125 199.097656 101.90625 200.398438 C 98.941406 201.417969 95.578125 202.277344 91.914062 202.953125 C 88.234375 203.632812 84.65625 204.089844 81.277344 204.316406 C 80.519531 204.367188 79.8125 204.390625 79.179688 204.390625 C 76.621094 204.390625 75.695312 203.984375 75.371094 203.742188 C 75.34375 203.722656 75.3125 203.699219 75.28125 203.683594 C 73.777344 202.769531 71.820312 201.042969 69.453125 198.558594 C 66.972656 195.945312 65.132812 193.964844 63.835938 192.503906 C 63.613281 192.253906 63.296875 192.113281 62.960938 192.113281 C 62.925781 192.113281 62.890625 192.113281 62.859375 192.113281 C 62.484375 192.152344 62.152344 192.355469 61.960938 192.675781 L 60.621094 194.890625 C 59.570312 196.621094 58.445312 198.484375 57.238281 200.480469 C 55.546875 203.285156 53.828125 205.636719 52.144531 207.476562 C 51.601562 208.039062 50.117188 208.949219 46.242188 209.960938 C 42.953125 210.820312 39.453125 211.511719 35.832031 212.019531 C 32.214844 212.527344 28.871094 212.78125 25.894531 212.78125 L 25.863281 212.78125 " fill-opacity="1" fill-rule="nonzero"/><path fill="#ffffff" d="M 135.894531 194.90625 C 134.546875 194.90625 133.410156 194.789062 132.519531 194.5625 C 132.425781 194.5 131.113281 193.523438 129.496094 184.191406 C 128.242188 176.964844 127.167969 168.796875 126.3125 159.910156 C 125.441406 150.902344 124.820312 142.082031 124.46875 133.683594 C 124.121094 125.40625 124.132812 119.726562 124.503906 116.804688 C 124.738281 114.824219 126.710938 112.945312 130.375 111.210938 C 134.335938 109.328125 138.722656 107.890625 143.421875 106.9375 C 147.214844 106.164062 150.792969 105.777344 154.058594 105.777344 C 154.832031 105.777344 155.597656 105.796875 156.34375 105.839844 C 158.636719 105.972656 161.410156 106.46875 161.609375 108.066406 C 162.238281 113.503906 162.59375 120.617188 162.664062 129.183594 C 162.738281 137.832031 162.597656 146.511719 162.246094 154.984375 C 161.894531 163.398438 161.363281 171.023438 160.65625 177.652344 C 159.757812 186.058594 158.921875 188.394531 158.503906 189.042969 C 158.476562 189.085938 158.453125 189.128906 158.429688 189.175781 C 158.203125 189.644531 156.726562 191.351562 147.238281 193.386719 C 142.539062 194.394531 138.722656 194.90625 135.894531 194.90625 " fill-opacity="1" fill-rule="nonzero"/><path fill="#ffffff" d="M 181.320312 186.816406 C 178.058594 186.816406 177.601562 186.167969 177.601562 186.160156 C 177.5625 186.101562 177.5 185.996094 177.457031 185.941406 C 177.21875 185.652344 176.386719 184.039062 175.632812 175.300781 C 175.078125 168.894531 174.691406 161.3125 174.492188 152.765625 C 174.285156 144.3125 174.285156 135.539062 174.480469 126.691406 C 174.679688 117.875 175.195312 110.5625 176.015625 104.953125 C 176.039062 104.753906 176.300781 103.824219 179.320312 102.585938 C 181.773438 101.585938 184.644531 100.746094 187.851562 100.097656 C 191.074219 99.449219 194.367188 99.027344 197.636719 98.851562 C 198.546875 98.800781 199.40625 98.777344 200.199219 98.777344 C 202.179688 98.777344 203.796875 98.929688 204.996094 99.242188 C 207.390625 99.921875 210.597656 102.457031 214.503906 106.773438 C 218.613281 111.324219 221.503906 114.667969 223.332031 116.992188 C 223.5625 117.28125 223.898438 117.4375 224.253906 117.4375 C 224.390625 117.4375 224.527344 117.414062 224.664062 117.367188 C 225.136719 117.183594 225.445312 116.71875 225.421875 116.207031 C 225.234375 112.261719 225.023438 108.589844 224.796875 105.292969 C 224.582031 102.1875 224.527344 99.878906 224.628906 98.425781 C 224.648438 96.667969 227.039062 95.226562 229.039062 94.316406 C 232.320312 92.828125 235.984375 91.671875 239.925781 90.886719 C 243.316406 90.210938 246.53125 89.867188 249.484375 89.867188 C 249.960938 89.867188 250.429688 89.875 250.894531 89.894531 C 254.023438 90.011719 255.246094 90.652344 255.355469 91.21875 C 256.246094 96.964844 256.90625 104.136719 257.308594 112.492188 C 257.726562 121.132812 257.90625 129.832031 257.84375 138.347656 C 257.78125 146.46875 257.503906 154.058594 257.019531 160.910156 C 256.410156 169.4375 255.871094 171.585938 255.695312 172.085938 C 255.507812 172.433594 254.792969 173.257812 252.152344 174.203125 C 249.886719 175.007812 247.351562 175.703125 244.613281 176.261719 C 241.867188 176.820312 239.203125 177.214844 236.703125 177.4375 C 235.554688 177.535156 234.570312 177.585938 233.777344 177.585938 C 232.710938 177.585938 232.167969 177.496094 231.902344 177.421875 C 231.109375 177.210938 229.578125 176.460938 226.6875 174.0625 C 224.253906 172.046875 221.722656 169.796875 219.15625 167.371094 C 216.5625 164.917969 214.183594 162.574219 212.082031 160.410156 C 209.96875 158.238281 208.621094 156.789062 208.070312 156.109375 C 207.839844 155.828125 207.503906 155.671875 207.15625 155.671875 C 207.042969 155.671875 206.929688 155.6875 206.816406 155.726562 C 206.363281 155.867188 206.035156 156.269531 205.992188 156.742188 C 205.40625 163.476562 204.753906 169.519531 204.054688 174.699219 C 203.148438 181.414062 202.195312 182.296875 202.089844 182.375 C 199.390625 184.082031 194.601562 185.402344 187.871094 186.289062 C 185.226562 186.636719 183.023438 186.816406 181.320312 186.816406 " fill-opacity="1" fill-rule="nonzero"/><path fill="#ffffff" d="M 276.207031 140.28125 C 274.753906 140.28125 273.582031 140.125 272.722656 139.820312 C 272.648438 139.765625 271.746094 139.03125 270.769531 133.121094 C 270.003906 128.519531 269.351562 123.34375 268.769531 117.300781 C 268.203125 111.398438 267.757812 105.671875 267.445312 100.273438 C 267.109375 94.519531 267.003906 91.035156 267.109375 89.296875 C 267.175781 88.25 268.539062 87.089844 270.953125 86.035156 C 273.78125 84.792969 276.941406 83.851562 280.34375 83.230469 C 283.128906 82.726562 285.792969 82.472656 288.257812 82.472656 C 288.800781 82.472656 289.339844 82.488281 289.867188 82.511719 C 292.558594 82.632812 293.640625 83.207031 293.746094 83.65625 C 294.503906 87.242188 295.101562 91.8125 295.507812 97.21875 C 295.933594 102.777344 296.125 108.367188 296.074219 113.828125 C 296.035156 119.15625 295.777344 124.085938 295.316406 128.476562 C 294.703125 134.289062 293.980469 135.433594 293.84375 135.605469 C 293.785156 135.679688 293.734375 135.757812 293.691406 135.839844 C 293.503906 136.238281 292.28125 137.667969 284.574219 139.242188 C 281.191406 139.933594 278.378906 140.28125 276.207031 140.28125 Z M 280.535156 169.789062 C 277.828125 169.789062 275.601562 169.027344 273.742188 167.46875 C 271.855469 165.882812 270.804688 163.777344 270.527344 161.023438 C 270.078125 157.050781 271.386719 153.425781 274.523438 149.941406 C 277.664062 146.449219 281.175781 144.738281 285.265625 144.722656 L 285.378906 144.71875 C 289.734375 144.71875 292.730469 145.953125 294.277344 148.386719 C 295.917969 150.976562 296.40625 153.757812 295.769531 156.886719 C 295.117188 160.054688 293.425781 163.023438 290.738281 165.714844 C 288.105469 168.347656 284.753906 169.71875 280.769531 169.785156 L 280.535156 169.789062 " fill-opacity="1" fill-rule="nonzero"/><path fill="#ffe900" d="M 23.910156 213.566406 C 21.671875 213.566406 20.738281 213.355469 20.410156 213.246094 C 17.808594 208.230469 15.566406 201.734375 13.722656 193.902344 C 11.769531 185.609375 10.28125 177.296875 9.292969 169.195312 C 8.324219 161.25 7.832031 153.894531 7.828125 147.339844 C 7.824219 138.652344 8.507812 136.789062 8.644531 136.507812 C 8.664062 136.46875 8.679688 136.433594 8.695312 136.394531 C 8.800781 136.269531 9.398438 135.636719 11.808594 134.535156 C 14.164062 133.449219 16.898438 132.449219 19.945312 131.550781 C 23 130.644531 26.074219 129.929688 29.074219 129.421875 C 30.695312 129.148438 32.097656 129.007812 33.238281 129.007812 C 33.9375 129.007812 34.535156 129.0625 35.023438 129.164062 C 35.375 129.613281 36.480469 131.675781 37.753906 140.535156 C 38.988281 149.121094 40.363281 157.96875 41.832031 166.839844 C 41.957031 167.601562 42.519531 168.214844 43.265625 168.410156 C 43.425781 168.453125 43.59375 168.476562 43.753906 168.476562 C 44.339844 168.476562 44.902344 168.214844 45.277344 167.738281 C 45.988281 166.855469 47.320312 165.152344 49.300781 162.625 L 53.21875 157.625 C 58.398438 151.039062 60.269531 149.917969 60.6875 149.730469 C 61.011719 149.816406 62.558594 150.4375 66.660156 154.914062 C 70.316406 158.902344 72.863281 161.65625 73.832031 162.65625 C 74.203125 163.046875 74.710938 163.253906 75.234375 163.253906 C 75.445312 163.253906 75.664062 163.214844 75.875 163.144531 C 76.59375 162.890625 77.097656 162.246094 77.175781 161.488281 C 78.101562 152.070312 79.238281 142.769531 80.546875 133.84375 C 82.234375 122.402344 83.769531 120.808594 83.941406 120.667969 C 85.207031 119.867188 87.265625 119.195312 90.035156 118.6875 C 92.964844 118.152344 95.949219 117.804688 98.90625 117.660156 C 99.929688 117.605469 100.929688 117.578125 101.878906 117.578125 C 103.644531 117.578125 105.296875 117.671875 106.792969 117.847656 C 108.546875 118.058594 109.226562 118.335938 109.4375 118.449219 C 109.609375 118.785156 110.167969 120.542969 110.257812 128.910156 C 110.328125 135.339844 110.117188 142.726562 109.613281 151.496094 C 109.128906 159.933594 108.351562 168.761719 107.3125 177.726562 C 106.292969 186.496094 105.003906 193.800781 103.480469 199.445312 C 103.289062 199.632812 102.46875 200.273438 99.703125 201.226562 C 96.773438 202.230469 93.449219 203.078125 89.820312 203.75 C 86.171875 204.421875 82.625 204.875 79.273438 205.101562 C 78.535156 205.148438 77.84375 205.171875 77.230469 205.171875 C 74.625 205.171875 73.953125 204.730469 73.886719 204.679688 C 73.835938 204.644531 73.789062 204.609375 73.734375 204.578125 C 72.292969 203.695312 70.382812 202.015625 68.070312 199.582031 C 65.589844 196.976562 63.757812 195.003906 62.46875 193.546875 C 62.09375 193.128906 61.566406 192.894531 61.011719 192.894531 C 60.953125 192.894531 60.894531 192.898438 60.832031 192.902344 C 60.21875 192.957031 59.667969 193.304688 59.34375 193.835938 L 58.003906 196.042969 C 56.957031 197.777344 55.824219 199.640625 54.617188 201.636719 C 52.953125 204.398438 51.269531 206.714844 49.617188 208.511719 C 49.324219 208.816406 48.136719 209.714844 44.09375 210.769531 C 40.835938 211.621094 37.363281 212.304688 33.773438 212.808594 C 30.191406 213.308594 26.882812 213.566406 23.941406 213.566406 L 23.910156 213.566406 " fill-opacity="1" fill-rule="nonzero"/><path fill="#ffe900" d="M 133.941406 195.6875 C 132.785156 195.6875 131.796875 195.597656 131.003906 195.425781 C 130.6875 195.015625 129.617188 193.140625 128.316406 185.625 C 127.0625 178.417969 125.992188 170.265625 125.136719 161.402344 C 124.265625 152.40625 123.648438 143.597656 123.296875 135.214844 C 122.867188 124.960938 123.074219 120.441406 123.324219 118.464844 C 123.523438 116.792969 125.402344 115.078125 128.757812 113.480469 C 132.660156 111.628906 136.988281 110.210938 141.625 109.265625 C 145.367188 108.507812 148.894531 108.125 152.109375 108.125 C 152.863281 108.125 153.617188 108.144531 154.347656 108.183594 C 157.007812 108.339844 158.789062 108.945312 158.882812 109.726562 C 159.507812 115.132812 159.863281 122.214844 159.933594 130.757812 C 160.007812 139.386719 159.867188 148.054688 159.515625 156.515625 C 159.167969 164.914062 158.632812 172.523438 157.925781 179.136719 C 156.988281 187.925781 156.136719 189.8125 155.898438 190.183594 C 155.851562 190.25 155.8125 190.324219 155.777344 190.398438 C 155.683594 190.570312 154.570312 192.15625 145.121094 194.1875 C 140.480469 195.183594 136.71875 195.6875 133.941406 195.6875 " fill-opacity="1" fill-rule="nonzero"/><path fill="#ffe900" d="M 179.371094 187.597656 C 177.203125 187.597656 176.445312 187.304688 176.25 187.203125 C 176.203125 187.136719 176.15625 187.070312 176.105469 187.007812 C 175.976562 186.808594 175.191406 185.28125 174.460938 176.796875 C 173.90625 170.40625 173.523438 162.84375 173.320312 154.3125 C 173.117188 145.871094 173.113281 137.109375 173.3125 128.273438 C 173.507812 119.488281 174.019531 112.207031 174.835938 106.628906 C 174.835938 106.625 175.136719 105.910156 177.664062 104.875 C 180.070312 103.890625 182.894531 103.066406 186.054688 102.429688 C 189.242188 101.789062 192.496094 101.375 195.730469 101.195312 C 196.621094 101.148438 197.46875 101.121094 198.246094 101.121094 C 200.164062 101.121094 201.714844 101.273438 202.851562 101.566406 C 204.375 101.996094 207.234375 103.625 211.972656 108.863281 C 216.019531 113.335938 218.976562 116.761719 220.769531 119.039062 C 221.148438 119.519531 221.71875 119.785156 222.304688 119.785156 C 222.53125 119.785156 222.761719 119.746094 222.984375 119.660156 C 223.777344 119.363281 224.289062 118.585938 224.25 117.734375 C 224.0625 113.785156 223.851562 110.105469 223.625 106.804688 C 223.414062 103.734375 223.359375 101.460938 223.457031 100.046875 C 223.457031 100.007812 223.460938 99.96875 223.460938 99.929688 C 223.46875 98.949219 224.910156 97.734375 227.410156 96.59375 C 230.636719 95.128906 234.242188 93.992188 238.125 93.21875 C 241.46875 92.554688 244.632812 92.214844 247.535156 92.214844 C 248 92.214844 248.457031 92.222656 248.917969 92.238281 C 251.71875 92.34375 252.496094 92.863281 252.648438 92.992188 C 253.523438 98.675781 254.175781 105.796875 254.578125 114.09375 C 254.992188 122.71875 255.171875 131.40625 255.113281 139.90625 C 255.050781 148.011719 254.773438 155.585938 254.289062 162.417969 C 253.703125 170.652344 253.191406 172.816406 253.035156 173.316406 C 252.902344 173.503906 252.296875 174.1875 249.941406 175.027344 C 247.710938 175.824219 245.210938 176.507812 242.507812 177.058594 C 239.789062 177.613281 237.15625 178.003906 234.679688 178.222656 C 233.558594 178.320312 232.597656 178.367188 231.828125 178.367188 C 230.757812 178.367188 230.308594 178.273438 230.164062 178.230469 C 229.5625 178.070312 228.164062 177.453125 225.230469 175.023438 C 222.8125 173.019531 220.292969 170.78125 217.742188 168.367188 C 215.15625 165.921875 212.785156 163.585938 210.691406 161.429688 C 208.082031 158.742188 207.09375 157.636719 206.722656 157.175781 C 206.347656 156.710938 205.785156 156.457031 205.207031 156.457031 C 205.015625 156.457031 204.824219 156.484375 204.636719 156.542969 C 203.878906 156.773438 203.335938 157.445312 203.265625 158.242188 C 202.675781 164.957031 202.027344 170.988281 201.332031 176.160156 C 200.578125 181.75 199.8125 183.085938 199.632812 183.332031 C 197.023438 184.949219 192.367188 186.214844 185.820312 187.078125 C 183.207031 187.421875 181.039062 187.597656 179.371094 187.597656 " fill-opacity="1" fill-rule="nonzero"/><path fill="#ffe900" d="M 274.257812 141.0625 C 273.007812 141.0625 271.992188 140.945312 271.234375 140.710938 C 271.007812 140.382812 270.335938 139.074219 269.585938 134.554688 C 268.824219 129.976562 268.175781 124.816406 267.597656 118.792969 C 267.03125 112.898438 266.585938 107.179688 266.273438 101.792969 C 265.941406 96.074219 265.832031 92.613281 265.9375 90.910156 C 265.972656 90.355469 266.878906 89.382812 269.3125 88.316406 C 272.085938 87.101562 275.1875 86.175781 278.535156 85.566406 C 281.273438 85.070312 283.886719 84.816406 286.308594 84.816406 C 286.835938 84.816406 287.363281 84.832031 287.878906 84.855469 C 290.164062 84.960938 290.890625 85.378906 291.058594 85.5 C 291.792969 89.015625 292.375 93.523438 292.78125 98.84375 C 293.203125 104.378906 293.394531 109.945312 293.34375 115.386719 C 293.300781 120.691406 293.046875 125.59375 292.589844 129.960938 C 292.007812 135.503906 291.347656 136.582031 291.273438 136.6875 C 291.179688 136.808594 291.105469 136.925781 291.039062 137.066406 C 291.011719 137.109375 290.101562 138.480469 282.464844 140.039062 C 279.136719 140.71875 276.375 141.0625 274.257812 141.0625 Z M 278.585938 170.570312 C 276.066406 170.570312 274.007812 169.871094 272.292969 168.433594 C 270.570312 166.984375 269.605469 165.050781 269.351562 162.511719 C 268.929688 158.761719 270.171875 155.339844 273.15625 152.027344 C 276.136719 148.707031 279.464844 147.082031 283.320312 147.066406 L 283.429688 147.066406 C 287.558594 147.066406 290.253906 148.148438 291.667969 150.375 C 293.195312 152.78125 293.648438 155.375 293.050781 158.296875 C 292.4375 161.304688 290.816406 164.144531 288.238281 166.726562 C 285.714844 169.246094 282.632812 170.503906 278.800781 170.570312 L 278.585938 170.570312 " fill-opacity="1" fill-rule="nonzero"/></svg>